<?xml version="1.0" encoding="UTF-8" standalone="no"?>
<svg
   xmlns:dc="http://purl.org/dc/elements/1.1/"
   xmlns:cc="http://creativecommons.org/ns#"
   xmlns:rdf="http://www.w3.org/1999/02/22-rdf-syntax-ns#"
   xmlns:svg="http://www.w3.org/2000/svg"
   xmlns="http://www.w3.org/2000/svg"
   width="62.243088mm"
   height="63.855209mm"
   viewBox="0 0 62.243088 63.85521"
   version="1.1"
   id="svg2869">
  <defs
     id="defs2863">
    <clipPath
       clipPathUnits="userSpaceOnUse"
       id="clipPath1097">
      <path
         d="M 0,980 H 1400 V 0 H 0 Z"
         id="path1095" />
    </clipPath>
    <clipPath
       clipPathUnits="userSpaceOnUse"
       id="clipPath1113">
      <path
         d="M 0,980 H 1400 V 0 H 0 Z"
         id="path1111" />
    </clipPath>
    <clipPath
       clipPathUnits="userSpaceOnUse"
       id="clipPath1149">
      <path
         d="M 0,980 H 1400 V 0 H 0 Z"
         id="path1147" />
    </clipPath>
    <clipPath
       clipPathUnits="userSpaceOnUse"
       id="clipPath1177">
      <path
         d="M 0,980 H 1400 V 0 H 0 Z"
         id="path1175" />
    </clipPath>
    <clipPath
       clipPathUnits="userSpaceOnUse"
       id="clipPath1217">
      <path
         d="M 0,980 H 1400 V 0 H 0 Z"
         id="path1215" />
    </clipPath>
  </defs>
  <metadata
     id="metadata2866">
    <rdf:RDF>
      <cc:Work
         rdf:about="">
        <dc:format>image/svg+xml</dc:format>
        <dc:type
           rdf:resource="http://purl.org/dc/dcmitype/StillImage" />
        <dc:title></dc:title>
      </cc:Work>
    </rdf:RDF>
  </metadata>
  <g
     id="layer1"
     transform="translate(-12.437779,-16.740275)">
    <g
       id="g10596"
       transform="translate(-84.457171,-56.126601)">
      <g
         id="g1211"
         transform="matrix(0.35277777,0,0,-0.35277777,-309.15692,228.43196)">
        <g
           id="g1213"
           clip-path="url(#clipPath1217)">
          <g
             id="g1219"
             transform="translate(1310.4883,367.25)">
            <path
               d="m 0,0 v 51.669 h -51.67 l -9.793,16.963 -9.794,-16.963 -9.792,16.963 -9.794,-16.963 h -51.67 V 0 l -16.962,-9.793 16.962,-9.794 -16.962,-9.793 16.962,-9.793 v -51.671 h 51.97 l 9.494,-16.441 9.492,16.441 h 0.6 l 9.494,-16.441 9.492,16.441 H 0 v 51.671 L 16.962,-29.38 0,-19.587 16.962,-9.793 Z"
               style="fill:#1a4932;fill-opacity:1;fill-rule:nonzero;stroke:none"
               id="path1221" />
          </g>
          <g
             id="g1223"
             transform="translate(1327.4502,362.5469)">
            <path
               d="m 0,0 -16.962,9.793 v 51.669 h -51.67 l -9.793,16.963 -9.794,-16.963 -9.792,16.963 -9.794,-16.963 h -51.67 V 9.793 L -176.437,0 l 16.962,-9.794 -16.962,-9.794 16.962,-9.792 v -51.671 h 51.97 l 9.494,-16.442 9.492,16.442 h 0.6 l 9.494,-16.442 9.492,16.442 h 51.971 V -29.38 L 0,-19.588 -16.962,-9.794 Z"
               style="fill:#00ccd1;fill-opacity:1;fill-rule:nonzero;stroke:none"
               id="path1225" />
          </g>
        </g>
      </g>
      <text
         style="font-variant:normal;font-weight:bold;font-stretch:normal;font-size:10.3679px;font-family:'Proxima Nova Rg';-inkscape-font-specification:ProximaNova-Bold;writing-mode:lr-tb;fill:#ffffff;fill-opacity:1;fill-rule:nonzero;stroke:none;stroke-width:0.352778"
         id="text1233"
         x="107.39476"
         y="94.638237"><tspan
           x="107.39476 114.83892 122.77039 130.38043 137.25439 142.59386"
           y="94.638237"
           id="tspan1227"
           style="stroke-width:0.352778">DOUBLE</tspan><tspan
           x="109.93487 115.27438 121.31889 127.35301 133.38715 139.43164"
           y="107.07976"
           id="tspan1229"
           style="stroke-width:0.352778">LETTER</tspan><tspan
           x="111.02352 117.24429 124.36702 132.29849 138.9651"
           y="119.52127"
           id="tspan1231"
           style="stroke-width:0.352778">SCORE</tspan></text>
    </g>
  </g>
</svg>
