<?xml version="1.0" encoding="UTF-8" standalone="no"?>
<svg
   xmlns:dc="http://purl.org/dc/elements/1.1/"
   xmlns:cc="http://creativecommons.org/ns#"
   xmlns:rdf="http://www.w3.org/1999/02/22-rdf-syntax-ns#"
   xmlns:svg="http://www.w3.org/2000/svg"
   xmlns="http://www.w3.org/2000/svg"
   width="62.24305mm"
   height="63.853271mm"
   viewBox="0 0 62.24305 63.853272"
   version="1.1"
   id="svg2869">
  <defs
     id="defs2863">
    <clipPath
       clipPathUnits="userSpaceOnUse"
       id="clipPath1097">
      <path
         d="M 0,980 H 1400 V 0 H 0 Z"
         id="path1095" />
    </clipPath>
    <clipPath
       clipPathUnits="userSpaceOnUse"
       id="clipPath1113">
      <path
         d="M 0,980 H 1400 V 0 H 0 Z"
         id="path1111" />
    </clipPath>
    <clipPath
       clipPathUnits="userSpaceOnUse"
       id="clipPath1149">
      <path
         d="M 0,980 H 1400 V 0 H 0 Z"
         id="path1147" />
    </clipPath>
    <clipPath
       clipPathUnits="userSpaceOnUse"
       id="clipPath1177">
      <path
         d="M 0,980 H 1400 V 0 H 0 Z"
         id="path1175" />
    </clipPath>
  </defs>
  <metadata
     id="metadata2866">
    <rdf:RDF>
      <cc:Work
         rdf:about="">
        <dc:format>image/svg+xml</dc:format>
        <dc:type
           rdf:resource="http://purl.org/dc/dcmitype/StillImage" />
        <dc:title></dc:title>
      </cc:Work>
    </rdf:RDF>
  </metadata>
  <g
     id="layer1"
     transform="translate(-25.117729,-18.199161)">
    <g
       id="g10238"
       transform="matrix(0.35277777,0,0,-0.35277777,-510.16979,334.53969)">
      <g
         id="g1091"
         transform="translate(366.33728,244.83123)">
        <g
           id="g1093"
           clip-path="url(#clipPath1097)">
          <g
             id="g1099"
             transform="translate(1327.4502,568.3667)">
            <path
               d="m 0,0 -16.962,9.793 v 51.67 h -51.67 l -9.793,16.962 -9.794,-16.962 -9.792,16.962 -9.794,-16.962 h -51.67 V 9.793 L -176.437,0 l 16.962,-9.792 -16.962,-9.795 16.962,-9.792 v -51.663 h 51.97 l 9.494,-16.444 9.492,16.444 h 0.6 l 9.494,-16.444 9.492,16.444 h 51.971 v 51.663 L 0,-19.587 -16.962,-9.792 Z"
               style="fill:#1a4932;fill-opacity:1;fill-rule:nonzero;stroke:none"
               id="path1101" />
          </g>
        </g>
      </g>
      <text
         transform="scale(1,-1)"
         style="font-variant:normal;font-weight:bold;font-stretch:normal;font-size:31.3415px;font-family:'Myriad Pro';-inkscape-font-specification:Gadugi-Bold;writing-mode:lr-tb;fill:#ffffff;fill-opacity:1;fill-rule:nonzero;stroke:none"
         id="text1105"
         x="1550.597"
         y="-834.93182"><tspan
           x="1550.597 1571.4705 1593.0648 1613.3428 1630.3298 1645.123"
           y="-834.93182"
           id="tspan1103">DOUBLE</tspan></text>
      <g
         id="g1107"
         transform="translate(366.33728,244.83123)">
        <g
           id="g1109"
           clip-path="url(#clipPath1113)">
          <g
             id="g1115"
             transform="translate(1186.6416,590.1631)">
            <path
               d="m 0,0 c 1.379,-0.157 3.009,-0.25 4.952,-0.25 4.106,0 7.365,1.065 9.34,3.04 1.975,1.943 3.04,4.764 3.04,8.211 0,3.416 -1.097,5.861 -2.978,7.584 C 12.505,20.31 9.716,21.218 5.798,21.218 3.636,21.218 1.661,21.03 0,20.78 Z m 2.727,18.774 c 0.72,0.157 1.787,0.282 3.197,0.282 5.766,0 8.587,-3.166 8.555,-8.149 0,-5.704 -3.165,-8.964 -8.994,-8.964 -1.066,0 -2.069,0.032 -2.758,0.157 z"
               style="fill:none;stroke:#ffffff;stroke-width:5;stroke-linecap:butt;stroke-linejoin:miter;stroke-miterlimit:10;stroke-dasharray:none;stroke-opacity:1"
               id="path1117" />
          </g>
          <g
             id="g1119"
             transform="translate(1216.0713,611.5693)">
            <path
               d="m 0,0 c -5.642,0 -9.811,-4.388 -9.811,-11.095 0,-6.393 3.918,-10.718 9.498,-10.718 5.39,0 9.809,3.855 9.809,11.125 C 9.496,-4.419 5.767,0 0,0 Z m -0.126,-2.225 c 4.545,0 6.738,-4.388 6.738,-8.588 0,-4.795 -2.444,-8.775 -6.769,-8.775 -4.294,0 -6.739,4.043 -6.739,8.556 0,4.638 2.257,8.807 6.77,8.807 z"
               style="fill:none;stroke:#ffffff;stroke-width:5;stroke-linecap:butt;stroke-linejoin:miter;stroke-miterlimit:10;stroke-dasharray:none;stroke-opacity:1"
               id="path1121" />
          </g>
          <g
             id="g1123"
             transform="translate(1229.0771,611.2246)">
            <path
               d="m 0,0 v -12.442 c 0,-6.551 3.26,-9.027 7.585,-9.027 4.575,0 7.992,2.664 7.992,9.152 V 0 h -2.759 v -12.505 c 0,-4.67 -2.005,-6.739 -5.139,-6.739 -2.821,0 -4.921,2.006 -4.921,6.739 L 2.758,0 Z"
               style="fill:none;stroke:#ffffff;stroke-width:5;stroke-linecap:butt;stroke-linejoin:miter;stroke-miterlimit:10;stroke-dasharray:none;stroke-opacity:1"
               id="path1125" />
          </g>
          <g
             id="g1127"
             transform="translate(1249.3867,590.1631)">
            <path
               d="m 0,0 c 0.909,-0.125 2.351,-0.25 4.231,-0.25 3.448,0 5.83,0.626 7.303,1.974 1.066,1.034 1.786,2.413 1.786,4.231 0,3.134 -2.35,4.795 -4.356,5.297 v 0.062 c 2.225,0.815 3.573,2.602 3.573,4.639 0,1.661 -0.658,2.915 -1.756,3.73 C 9.465,20.748 7.71,21.218 4.983,21.218 3.071,21.218 1.191,21.03 0,20.78 Z m 2.727,18.931 c 0.439,0.093 1.16,0.188 2.413,0.188 2.758,0 4.638,-0.972 4.638,-3.448 0,-2.037 -1.692,-3.542 -4.575,-3.542 H 2.727 Z m 0,-8.87 h 2.256 c 2.978,0 5.454,-1.191 5.454,-4.075 0,-3.071 -2.601,-4.105 -5.422,-4.105 -0.972,0 -1.755,0.031 -2.288,0.125 z"
               style="fill:none;stroke:#ffffff;stroke-width:5;stroke-linecap:butt;stroke-linejoin:miter;stroke-miterlimit:10;stroke-dasharray:none;stroke-opacity:1"
               id="path1129" />
          </g>
          <g
             id="g1131"
             transform="translate(1266.373,590.1006)">
            <path
               d="M 0,0 H 11.753 V 2.288 H 2.727 V 21.124 H 0 Z"
               style="fill:none;stroke:#ffffff;stroke-width:5;stroke-linecap:butt;stroke-linejoin:miter;stroke-miterlimit:10;stroke-dasharray:none;stroke-opacity:1"
               id="path1133" />
          </g>
          <g
             id="g1135"
             transform="translate(1292.1045,602.2612)">
            <path
               d="M 0,0 H -8.212 V 6.676 H 0.47 V 8.963 H -10.938 V -12.161 H 0.94 v 2.288 h -9.152 v 7.616 H 0 Z"
               style="fill:none;stroke:#ffffff;stroke-width:5;stroke-linecap:butt;stroke-linejoin:miter;stroke-miterlimit:10;stroke-dasharray:none;stroke-opacity:1"
               id="path1137" />
          </g>
        </g>
      </g>
      <text
         transform="scale(1,-1)"
         style="font-variant:normal;font-weight:bold;font-stretch:normal;font-size:31.3415px;font-family:'Myriad Pro';-inkscape-font-specification:Gadugi-Bold;writing-mode:lr-tb;fill:#ffffff;fill-opacity:1;fill-rule:nonzero;stroke:none"
         id="text1141"
         x="1562.6469"
         y="-797.32196"><tspan
           x="1562.6469 1589.1617 1610.7561 1627.6178"
           y="-797.32196"
           id="tspan1139">WORD</tspan></text>
      <g
         id="g1143"
         transform="translate(366.33728,244.83123)">
        <g
           id="g1145"
           clip-path="url(#clipPath1149)">
          <g
             id="g1151"
             transform="translate(1204.9912,552.4907)">
            <path
               d="m 0,0 3.009,11.001 c 0.783,2.727 1.254,4.795 1.63,6.895 h 0.062 c 0.282,-2.131 0.721,-4.2 1.379,-6.895 L 8.744,0 h 2.853 l 5.985,21.124 H 14.793 L 12.004,10.468 C 11.346,7.835 10.75,5.485 10.312,3.166 H 10.249 C 9.936,5.391 9.371,7.898 8.775,10.405 L 6.205,21.124 H 3.354 L 0.533,10.468 C -0.188,7.741 -0.847,5.234 -1.191,3.134 h -0.063 c -0.376,2.037 -0.94,4.67 -1.566,7.303 L -5.328,21.124 H -8.212 L -2.853,0 Z"
               style="fill:none;stroke:#ffffff;stroke-width:5;stroke-linecap:butt;stroke-linejoin:miter;stroke-miterlimit:10;stroke-dasharray:none;stroke-opacity:1"
               id="path1153" />
          </g>
          <g
             id="g1155"
             transform="translate(1233.7627,573.9595)">
            <path
               d="m 0,0 c -5.642,0 -9.811,-4.388 -9.811,-11.095 0,-6.393 3.918,-10.718 9.498,-10.718 5.39,0 9.809,3.855 9.809,11.125 C 9.496,-4.419 5.767,0 0,0 Z m -0.126,-2.225 c 4.545,0 6.738,-4.388 6.738,-8.588 0,-4.795 -2.444,-8.775 -6.769,-8.775 -4.294,0 -6.739,4.043 -6.739,8.556 0,4.638 2.257,8.807 6.77,8.807 z"
               style="fill:none;stroke:#ffffff;stroke-width:5;stroke-linecap:butt;stroke-linejoin:miter;stroke-miterlimit:10;stroke-dasharray:none;stroke-opacity:1"
               id="path1157" />
          </g>
          <g
             id="g1159"
             transform="translate(1246.7998,552.4907)">
            <path
               d="m 0,0 h 2.727 v 9.152 h 2.57 C 7.772,9.058 8.901,7.961 9.528,5.046 10.123,2.413 10.594,0.596 10.938,0 h 2.821 c -0.439,0.815 -0.941,2.852 -1.63,5.798 -0.501,2.194 -1.473,3.699 -3.103,4.263 v 0.094 c 2.226,0.752 3.981,2.601 3.981,5.39 0,1.63 -0.596,3.072 -1.661,4.012 -1.317,1.191 -3.198,1.724 -6.112,1.724 -1.88,0 -3.855,-0.157 -5.234,-0.439 z m 2.727,18.93 c 0.439,0.126 1.378,0.251 2.695,0.251 2.884,-0.032 4.858,-1.223 4.858,-3.949 0,-2.413 -1.849,-4.012 -4.763,-4.012 h -2.79 z"
               style="fill:none;stroke:#ffffff;stroke-width:5;stroke-linecap:butt;stroke-linejoin:miter;stroke-miterlimit:10;stroke-dasharray:none;stroke-opacity:1"
               id="path1161" />
          </g>
          <g
             id="g1163"
             transform="translate(1263.6621,552.5532)">
            <path
               d="m 0,0 c 1.379,-0.157 3.009,-0.25 4.952,-0.25 4.106,0 7.365,1.065 9.34,3.04 1.975,1.943 3.04,4.764 3.04,8.211 0,3.416 -1.097,5.861 -2.978,7.584 C 12.505,20.31 9.716,21.218 5.798,21.218 3.636,21.218 1.661,21.03 0,20.78 Z m 2.727,18.774 c 0.72,0.157 1.787,0.282 3.197,0.282 5.766,0 8.587,-3.166 8.555,-8.149 0,-5.704 -3.165,-8.964 -8.994,-8.964 -1.066,0 -2.069,0.032 -2.758,0.157 z"
               style="fill:none;stroke:#ffffff;stroke-width:5;stroke-linecap:butt;stroke-linejoin:miter;stroke-miterlimit:10;stroke-dasharray:none;stroke-opacity:1"
               id="path1165" />
          </g>
        </g>
      </g>
      <text
         transform="scale(1,-1)"
         style="font-variant:normal;font-weight:bold;font-stretch:normal;font-size:31.3415px;font-family:'Myriad Pro';-inkscape-font-specification:Gadugi-Bold;writing-mode:lr-tb;fill:#ffffff;fill-opacity:1;fill-rule:nonzero;stroke:none"
         id="text1169"
         x="1562.1459"
         y="-759.71216"><tspan
           x="1562.1459 1577.5972 1595.1171 1616.7114 1633.5731"
           y="-759.71216"
           id="tspan1167">SCORE</tspan></text>
      <g
         id="g1171"
         transform="translate(366.33728,244.83123)">
        <g
           id="g1173"
           clip-path="url(#clipPath1177)">
          <g
             id="g1179"
             transform="translate(1197.125,515.915)">
            <path
               d="m 0,0 c 1.128,-0.752 3.354,-1.348 5.391,-1.348 4.983,0 7.396,2.821 7.396,6.08 0,3.103 -1.817,4.827 -5.391,6.206 -2.915,1.128 -4.2,2.1 -4.2,4.075 0,1.442 1.098,3.165 3.981,3.165 1.912,0 3.322,-0.627 4.011,-1.003 l 0.753,2.225 c -0.94,0.533 -2.507,1.035 -4.67,1.035 -4.106,0 -6.833,-2.445 -6.833,-5.736 0,-2.977 2.132,-4.763 5.58,-5.986 2.851,-1.097 3.98,-2.225 3.98,-4.2 0,-2.131 -1.63,-3.604 -4.419,-3.604 -1.881,0 -3.667,0.627 -4.89,1.379 z"
               style="fill:none;stroke:#ffffff;stroke-width:5;stroke-linecap:butt;stroke-linejoin:miter;stroke-miterlimit:10;stroke-dasharray:none;stroke-opacity:1"
               id="path1181" />
          </g>
          <g
             id="g1183"
             transform="translate(1227.8398,517.7329)">
            <path
               d="m 0,0 c -1.098,-0.533 -2.79,-0.877 -4.451,-0.877 -5.14,0 -8.117,3.322 -8.117,8.493 0,5.548 3.291,8.713 8.243,8.713 1.755,0 3.227,-0.376 4.262,-0.878 l 0.658,2.226 c -0.721,0.376 -2.382,0.94 -5.015,0.94 -6.55,0 -11.032,-4.482 -11.032,-11.095 0,-6.926 4.482,-10.688 10.437,-10.688 2.57,0 4.576,0.502 5.578,1.003 z"
               style="fill:none;stroke:#ffffff;stroke-width:5;stroke-linecap:butt;stroke-linejoin:miter;stroke-miterlimit:10;stroke-dasharray:none;stroke-opacity:1"
               id="path1185" />
          </g>
          <g
             id="g1187"
             transform="translate(1239.7178,536.3496)">
            <path
               d="m 0,0 c -5.642,0 -9.811,-4.388 -9.811,-11.095 0,-6.393 3.918,-10.718 9.498,-10.718 5.39,0 9.809,3.855 9.809,11.125 C 9.496,-4.419 5.767,0 0,0 Z m -0.126,-2.225 c 4.545,0 6.738,-4.388 6.738,-8.588 0,-4.795 -2.444,-8.775 -6.769,-8.775 -4.294,0 -6.739,4.043 -6.739,8.556 0,4.638 2.257,8.807 6.77,8.807 z"
               style="fill:none;stroke:#ffffff;stroke-width:5;stroke-linecap:butt;stroke-linejoin:miter;stroke-miterlimit:10;stroke-dasharray:none;stroke-opacity:1"
               id="path1189" />
          </g>
          <g
             id="g1191"
             transform="translate(1252.7549,514.8809)">
            <path
               d="m 0,0 h 2.727 v 9.152 h 2.57 C 7.772,9.058 8.901,7.961 9.528,5.046 10.123,2.413 10.594,0.596 10.938,0 h 2.821 c -0.439,0.815 -0.941,2.852 -1.63,5.798 -0.501,2.194 -1.473,3.699 -3.103,4.263 v 0.094 c 2.226,0.752 3.981,2.601 3.981,5.39 0,1.63 -0.596,3.072 -1.661,4.012 -1.317,1.191 -3.198,1.724 -6.112,1.724 -1.88,0 -3.855,-0.157 -5.234,-0.439 z m 2.727,18.93 c 0.439,0.126 1.378,0.251 2.695,0.251 2.884,-0.032 4.858,-1.223 4.858,-3.949 0,-2.413 -1.849,-4.012 -4.763,-4.012 h -2.79 z"
               style="fill:none;stroke:#ffffff;stroke-width:5;stroke-linecap:butt;stroke-linejoin:miter;stroke-miterlimit:10;stroke-dasharray:none;stroke-opacity:1"
               id="path1193" />
          </g>
          <g
             id="g1195"
             transform="translate(1280.5557,527.0415)">
            <path
               d="M 0,0 H -8.212 V 6.676 H 0.47 V 8.963 H -10.938 V -12.161 H 0.94 v 2.288 h -9.152 v 7.616 H 0 Z"
               style="fill:none;stroke:#ffffff;stroke-width:5;stroke-linecap:butt;stroke-linejoin:miter;stroke-miterlimit:10;stroke-dasharray:none;stroke-opacity:1"
               id="path1197" />
          </g>
          <g
             id="g1199"
             transform="translate(1327.4502,573.4561)">
            <path
               d="m 0,0 -16.962,9.794 v 51.669 h -51.67 l -9.793,16.963 -9.794,-16.963 -9.792,16.963 -9.794,-16.963 h -51.67 V 9.794 L -176.437,0 l 16.962,-9.792 -16.962,-9.794 16.962,-9.793 v -51.665 h 51.97 l 9.494,-16.441 9.492,16.441 h 0.6 l 9.494,-16.441 9.492,16.441 h 51.971 v 51.665 L 0,-19.586 -16.962,-9.792 Z"
               style="fill:#ff4557;fill-opacity:1;fill-rule:nonzero;stroke:none"
               id="path1201" />
          </g>
        </g>
      </g>
      <text
         transform="scale(1,-1)"
         style="font-variant:normal;font-weight:bold;font-stretch:normal;font-size:29.3894px;font-family:'Proxima Nova Rg';-inkscape-font-specification:ProximaNova-Bold;writing-mode:lr-tb;fill:#ffffff;fill-opacity:1;fill-rule:nonzero;stroke:none"
         id="text1209"
         x="1547.1136"
         y="-830.45825"><tspan
           x="1547.1136 1568.2152 1590.6981 1612.27 1631.7551 1646.8906"
           y="-830.45825"
           id="tspan1203">DOUBLE</tspan><tspan
           x="1561.1324 1587.524 1610.007 1628.9044"
           y="-795.19098"
           id="tspan1205">WORD</tspan><tspan
           x="1557.3999 1575.0336 1595.2241 1617.707 1636.6044"
           y="-759.92365"
           id="tspan1207">SCORE</tspan></text>
    </g>
  </g>
</svg>
