<?xml version="1.0" encoding="UTF-8" standalone="no"?>
<svg
   xmlns:dc="http://purl.org/dc/elements/1.1/"
   xmlns:cc="http://creativecommons.org/ns#"
   xmlns:rdf="http://www.w3.org/1999/02/22-rdf-syntax-ns#"
   xmlns:svg="http://www.w3.org/2000/svg"
   xmlns="http://www.w3.org/2000/svg"
   width="62.032444mm"
   height="63.827236mm"
   viewBox="0 0 62.032444 63.827237"
   version="1.1"
   id="svg2869">
  <defs
     id="defs2863">
    <clipPath
       clipPathUnits="userSpaceOnUse"
       id="clipPath1097">
      <path
         d="M 0,980 H 1400 V 0 H 0 Z"
         id="path1095" />
    </clipPath>
    <clipPath
       clipPathUnits="userSpaceOnUse"
       id="clipPath1113">
      <path
         d="M 0,980 H 1400 V 0 H 0 Z"
         id="path1111" />
    </clipPath>
    <clipPath
       clipPathUnits="userSpaceOnUse"
       id="clipPath1149">
      <path
         d="M 0,980 H 1400 V 0 H 0 Z"
         id="path1147" />
    </clipPath>
    <clipPath
       clipPathUnits="userSpaceOnUse"
       id="clipPath1177">
      <path
         d="M 0,980 H 1400 V 0 H 0 Z"
         id="path1175" />
    </clipPath>
    <clipPath
       clipPathUnits="userSpaceOnUse"
       id="clipPath1217">
      <path
         d="M 0,980 H 1400 V 0 H 0 Z"
         id="path1215" />
    </clipPath>
    <clipPath
       clipPathUnits="userSpaceOnUse"
       id="clipPath1073">
      <path
         d="M 0,980 H 1400 V 0 H 0 Z"
         id="path1071" />
    </clipPath>
  </defs>
  <metadata
     id="metadata2866">
    <rdf:RDF>
      <cc:Work
         rdf:about="">
        <dc:format>image/svg+xml</dc:format>
        <dc:type
           rdf:resource="http://purl.org/dc/dcmitype/StillImage" />
        <dc:title></dc:title>
      </cc:Work>
    </rdf:RDF>
  </metadata>
  <g
     id="layer1"
     transform="translate(-15.084552,-16.523982)">
    <g
       id="g1051"
       transform="matrix(0.35277777,0,0,-0.35277777,71.238306,39.153476)">
      <path
         d="m 0,0 v 42.394 h -42.394 l -9.621,16.664 -9.621,-16.664 -9.621,16.664 -9.619,-16.664 -9.622,16.664 -9.62,-16.664 h -42.394 V 0 l -16.664,-9.621 16.664,-9.621 -16.664,-9.62 16.664,-9.62 -16.664,-9.622 16.664,-9.62 v -42.395 h 42.394 l 9.62,-16.662 9.622,16.662 9.619,-16.662 9.621,16.662 9.621,-16.662 9.621,16.662 H 0 v 42.395 l 16.664,9.62 L 0,-38.482 16.664,-28.862 0,-19.242 16.664,-9.621 Z"
         style="fill:#1a4932;fill-opacity:1;fill-rule:nonzero;stroke:none"
         id="path1053" />
    </g>
    <g
       id="g1055"
       transform="matrix(0.35277777,0,0,-0.35277777,71.238306,44.145776)"
       style="fill:#782121">
      <path
         d="M 0,0 16.664,9.621 0,19.24 v 42.395 h -42.394 l -9.621,16.663 -9.621,-16.663 -9.621,16.663 -9.619,-16.663 -9.622,16.663 -9.62,-16.663 h -42.394 V 19.24 L -159.176,9.621 -142.512,0 l -16.664,-9.621 16.664,-9.62 -16.664,-9.621 16.664,-9.62 v -42.396 h 42.394 l 9.62,-16.663 9.622,16.663 9.619,-16.663 9.621,16.663 9.621,-16.663 9.621,16.663 H 0 v 42.396 l 16.664,9.62 -16.664,9.621 16.664,9.62 z"
         style="fill:#782121;fill-opacity:1;fill-rule:nonzero;stroke:none"
         id="path1057" />
    </g>
    <text
       style="font-variant:normal;font-weight:bold;font-stretch:normal;font-size:12.1445px;font-family:'Proxima Nova Rg';-inkscape-font-specification:ProximaNova-Bold;writing-mode:lr-tb;fill:#ffffff;fill-opacity:1;fill-rule:nonzero;stroke:none;stroke-width:0.352778"
       id="text1089"
       x="26.282253"
       y="37.811325"><tspan
         x="26.282253 33.350342 41.159245 44.486832 52.077133 58.331539"
         y="37.811325"
         id="tspan1083"
         style="stroke-width:0.352778">TRIPLE</tspan><tspan
         x="27.484556 38.390301 47.680828 55.489731"
         y="52.384701"
         id="tspan1085"
         style="stroke-width:0.352778">WORD</tspan><tspan
         x="25.942207 33.228897 41.572155 50.862682 58.671585"
         y="66.958076"
         id="tspan1087"
         style="stroke-width:0.352778">SCORE</tspan></text>
  </g>
</svg>
