<?xml version="1.0" encoding="UTF-8" standalone="no"?>
<svg
   xmlns:dc="http://purl.org/dc/elements/1.1/"
   xmlns:cc="http://creativecommons.org/ns#"
   xmlns:rdf="http://www.w3.org/1999/02/22-rdf-syntax-ns#"
   xmlns:svg="http://www.w3.org/2000/svg"
   xmlns="http://www.w3.org/2000/svg"
   width="41.281773mm"
   height="44.080814mm"
   viewBox="0 0 41.281773 44.080814"
   version="1.1"
   id="svg2869">
  <defs
     id="defs2863" />
  <metadata
     id="metadata2866">
    <rdf:RDF>
      <cc:Work
         rdf:about="">
        <dc:format>image/svg+xml</dc:format>
        <dc:type
           rdf:resource="http://purl.org/dc/dcmitype/StillImage" />
        <dc:title></dc:title>
      </cc:Work>
    </rdf:RDF>
  </metadata>
  <g
     id="layer1"
     transform="translate(-13.23325,-36.044348)">
    <g
       id="g4877">
      <g
         id="g689"
         transform="matrix(0.35277777,0,0,-0.35277777,52.263242,38.845576)">
        <path
           d="m 0,0 h -104.253 c -3.525,0 -6.383,-2.858 -6.383,-6.383 V -110.63 c 0,-3.525 2.858,-6.383 6.383,-6.383 H 0 c 3.525,0 6.383,2.858 6.383,6.383 V -6.383 C 6.383,-2.858 3.525,0 0,0"
           style="fill:#c4a766;fill-opacity:1;fill-rule:nonzero;stroke:none"
           id="path691" />
      </g>
      <g
         id="g911"
         transform="matrix(0.35277777,0,0,-0.35277777,54.514952,75.072153)">
        <path
           d="m 0,0 c 0,-3.525 -2.857,-6.384 -6.383,-6.384 h -104.253 c -3.525,0 -6.383,2.859 -6.383,6.384 v 104.247 c 0,3.525 2.858,6.383 6.383,6.383 H -6.383 c 3.526,0 6.383,-2.858 6.383,-6.383 z"
           style="fill:#efdba3;fill-opacity:1;fill-rule:nonzero;stroke:none"
           id="path913" />
      </g>
      <g
         id="g915"
         transform="matrix(0.35277777,0,0,-0.35277777,30.415112,56.891359)">
        <path
           d="m 0,0 h 10.626 c 2.775,0 4.894,0.681 6.354,2.045 1.461,1.363 2.192,3.177 2.192,5.44 0,2.046 -0.676,3.798 -2.027,5.259 -1.351,1.461 -3.792,2.191 -7.322,2.191 L 0,14.935 Z M 0,-27.462 H -8.982 V 22.384 H 11.43 c 5.818,0 10.133,-1.467 12.945,-4.401 2.812,-2.932 4.218,-6.396 4.218,-10.388 0,-4.553 -1.522,-8.241 -4.565,-11.064 -3.043,-2.825 -6.902,-4.236 -11.576,-4.236 L 0,-7.705 Z"
           style="fill:#634b28;fill-opacity:1;fill-rule:nonzero;stroke:none"
           id="path917" />
      </g>
      <g
         id="g919"
         transform="matrix(0.35277777,0,0,-0.35277777,49.121302,70.076073)">
        <path
           d="m 0,0 c 0,-0.566 -0.106,-1.081 -0.319,-1.546 -0.213,-0.465 -0.514,-0.862 -0.904,-1.192 -0.387,-0.33 -0.853,-0.586 -1.397,-0.767 -0.543,-0.182 -1.143,-0.271 -1.797,-0.271 -1.197,0 -2.15,0.227 -2.857,0.682 v 1.544 c 0.847,-0.667 1.818,-1 2.91,-1 0.439,0 0.834,0.055 1.187,0.166 0.354,0.112 0.657,0.273 0.912,0.483 0.254,0.211 0.45,0.464 0.587,0.762 0.138,0.298 0.206,0.634 0.206,1.008 0,1.643 -1.169,2.462 -3.506,2.462 H -6.021 V 3.55 h 0.991 c 2.068,0 3.102,0.771 3.102,2.313 0,1.426 -0.788,2.139 -2.366,2.139 -0.889,0 -1.721,-0.298 -2.498,-0.894 v 1.394 c 0.801,0.479 1.753,0.719 2.857,0.719 0.526,0 1.002,-0.074 1.429,-0.22 0.427,-0.147 0.791,-0.35 1.095,-0.613 0.305,-0.263 0.539,-0.578 0.706,-0.947 0.166,-0.368 0.25,-0.774 0.25,-1.217 0,-1.655 -0.836,-2.718 -2.507,-3.191 V 2.998 c 0.426,-0.047 0.821,-0.15 1.184,-0.311 0.362,-0.161 0.674,-0.37 0.937,-0.626 0.264,-0.258 0.469,-0.56 0.617,-0.909 C -0.074,0.806 0,0.421 0,0"
           style="fill:#634b28;fill-opacity:1;fill-rule:nonzero;stroke:none"
           id="path921" />
      </g>
    </g>
  </g>
</svg>
