<?xml version="1.0" encoding="UTF-8" standalone="no"?>
<svg
   xmlns:dc="http://purl.org/dc/elements/1.1/"
   xmlns:cc="http://creativecommons.org/ns#"
   xmlns:rdf="http://www.w3.org/1999/02/22-rdf-syntax-ns#"
   xmlns:svg="http://www.w3.org/2000/svg"
   xmlns="http://www.w3.org/2000/svg"
   width="41.281773mm"
   height="44.082821mm"
   viewBox="0 0 41.281773 44.082821"
   version="1.1"
   id="svg2869">
  <defs
     id="defs2863" />
  <metadata
     id="metadata2866">
    <rdf:RDF>
      <cc:Work
         rdf:about="">
        <dc:format>image/svg+xml</dc:format>
        <dc:type
           rdf:resource="http://purl.org/dc/dcmitype/StillImage" />
        <dc:title></dc:title>
      </cc:Work>
    </rdf:RDF>
  </metadata>
  <g
     id="layer1"
     transform="translate(22.155202,-2.4626046)">
    <g
       id="g7045"
       transform="translate(-142.9892,-60.135644)">
      <g
         id="g669"
         transform="matrix(0.35277777,0,0,-0.35277777,123.08585,106.68107)">
        <path
           d="m 0,0 h 104.253 c 3.525,0 6.383,2.857 6.383,6.383 v 104.253 c 0,3.525 -2.858,6.383 -6.383,6.383 L 0,117.019 c -3.525,0 -6.383,-2.858 -6.383,-6.383 V 6.383 C -6.383,2.857 -3.525,0 0,0"
           style="fill:#c4a766;fill-opacity:1;fill-rule:nonzero;stroke:none"
           id="path671" />
      </g>
      <g
         id="g851"
         transform="matrix(0.35277777,0,0,-0.35277777,162.1157,101.62817)">
        <path
           d="m 0,0 c 0,-3.525 -2.857,-6.383 -6.383,-6.383 h -104.253 c -3.525,0 -6.383,2.858 -6.383,6.383 v 104.253 c 0,3.525 2.858,6.383 6.383,6.383 H -6.383 c 3.526,0 6.383,-2.858 6.383,-6.383 z"
           style="fill:#efdba3;fill-opacity:1;fill-rule:nonzero;stroke:none"
           id="path853" />
      </g>
      <g
         id="g855"
         transform="matrix(0.35277777,0,0,-0.35277777,137.6972,89.441634)">
        <path
           d="m 0,0 h 7.486 c 4.017,0 7.425,1.509 10.225,4.527 2.8,3.019 4.199,7.511 4.199,13.475 0,4.869 -1.223,8.99 -3.67,12.361 -2.447,3.371 -5.678,5.058 -9.694,5.058 H 0 Z M -9.238,-7.341 V 42.505 H 9.13 c 6.792,0 12.244,-2.404 16.359,-7.212 C 29.604,30.484 31.66,24.551 31.66,17.492 31.66,10.431 29.543,4.527 25.307,-0.219 21.07,-4.967 15.009,-7.341 7.121,-7.341 Z"
           style="fill:#634b28;fill-opacity:1;fill-rule:nonzero;stroke:none"
           id="path857" />
      </g>
      <g
         id="g859"
         transform="matrix(0.35277777,0,0,-0.35277777,155.04741,95.148097)">
        <path
           d="M 0,0 C 0,0.385 -0.061,0.722 -0.18,1.008 -0.3,1.294 -0.464,1.532 -0.671,1.722 -0.878,1.913 -1.122,2.054 -1.402,2.146 -1.684,2.24 -1.987,2.287 -2.313,2.287 -2.594,2.287 -2.869,2.25 -3.138,2.173 -3.407,2.098 -3.668,1.993 -3.923,1.858 -4.177,1.724 -4.422,1.563 -4.658,1.376 -4.895,1.189 -5.115,0.981 -5.32,0.754 v 1.542 c 0.403,0.392 0.854,0.691 1.353,0.898 0.501,0.208 1.111,0.312 1.828,0.312 0.515,0 0.991,-0.074 1.429,-0.224 C -0.272,3.133 0.107,2.916 0.429,2.63 0.751,2.343 1.003,1.99 1.187,1.569 1.371,1.148 1.464,0.667 1.464,0.123 1.464,-0.374 1.407,-0.824 1.293,-1.227 1.179,-1.63 1.007,-2.01 0.775,-2.367 0.545,-2.723 0.253,-3.064 -0.097,-3.392 c -0.35,-0.327 -0.762,-0.66 -1.236,-0.999 -0.59,-0.421 -1.076,-0.779 -1.459,-1.078 -0.383,-0.297 -0.687,-0.576 -0.911,-0.836 -0.225,-0.261 -0.383,-0.521 -0.474,-0.78 -0.09,-0.26 -0.135,-0.56 -0.135,-0.899 h 6.257 v -1.288 h -7.757 v 0.622 c 0,0.537 0.06,1.011 0.177,1.42 0.116,0.408 0.31,0.797 0.577,1.165 0.27,0.368 0.621,0.737 1.057,1.105 0.435,0.367 0.969,0.782 1.6,1.244 0.455,0.328 0.836,0.639 1.142,0.938 0.308,0.298 0.555,0.596 0.741,0.893 0.188,0.299 0.32,0.601 0.4,0.908 C -0.04,-0.67 0,-0.344 0,0"
           style="fill:#634b28;fill-opacity:1;fill-rule:nonzero;stroke:none"
           id="path861" />
      </g>
    </g>
  </g>
</svg>
