<?xml version="1.0" encoding="UTF-8" standalone="no"?>
<svg
   xmlns:dc="http://purl.org/dc/elements/1.1/"
   xmlns:cc="http://creativecommons.org/ns#"
   xmlns:rdf="http://www.w3.org/1999/02/22-rdf-syntax-ns#"
   xmlns:svg="http://www.w3.org/2000/svg"
   xmlns="http://www.w3.org/2000/svg"
   width="41.281773mm"
   height="44.082653mm"
   viewBox="0 0 41.281773 44.082653"
   version="1.1"
   id="svg2869">
  <defs
     id="defs2863" />
  <metadata
     id="metadata2866">
    <rdf:RDF>
      <cc:Work
         rdf:about="">
        <dc:format>image/svg+xml</dc:format>
        <dc:type
           rdf:resource="http://purl.org/dc/dcmitype/StillImage" />
        <dc:title></dc:title>
      </cc:Work>
    </rdf:RDF>
  </metadata>
  <g
     id="layer1"
     transform="translate(-28.372636,9.8150083)">
    <g
       id="g3337"
       transform="translate(6.4255952,6.6145833)">
      <g
         id="g721"
         transform="matrix(0.35277777,0,0,-0.35277777,60.977033,-13.628642)">
        <path
           d="m 0,0 h -104.253 c -3.525,0 -6.383,-2.858 -6.383,-6.384 v -104.252 c 0,-3.525 2.858,-6.383 6.383,-6.383 H 0 c 3.525,0 6.383,2.858 6.383,6.383 V -6.384 C 6.383,-2.858 3.525,0 0,0"
           style="fill:#c4a766;fill-opacity:1;fill-rule:nonzero;stroke:none"
           id="path723" />
      </g>
      <g
         id="g1007"
         transform="matrix(0.35277777,0,0,-0.35277777,63.228743,22.599977)">
        <path
           d="m 0,0 c 0,-3.525 -2.857,-6.383 -6.383,-6.383 h -104.253 c -3.525,0 -6.383,2.858 -6.383,6.383 v 104.252 c 0,3.525 2.858,6.383 6.383,6.383 H -6.383 c 3.526,0 6.383,-2.858 6.383,-6.383 z"
           style="fill:#efdba3;fill-opacity:1;fill-rule:nonzero;stroke:none"
           id="path1009" />
      </g>
      <g
         id="g1011"
         transform="matrix(0.35277777,0,0,-0.35277777,50.006633,13.002976)">
        <path
           d="M 0,0 H -10.48 L -21.509,19.646 -33.194,0 h -8.363 l 15.776,25.963 -13.548,23.882 h 10.444 l 9.202,-16.578 9.75,16.578 h 8.399 L -15.41,27.095 Z"
           style="fill:#634b28;fill-opacity:1;fill-rule:nonzero;stroke:none"
           id="path1013" />
      </g>
      <g
         id="g1015"
         transform="matrix(0.35277777,0,0,-0.35277777,54.949333,16.446016)">
        <path
           d="m 0,0 c 0,-0.298 0.055,-0.574 0.163,-0.828 0.108,-0.254 0.256,-0.476 0.446,-0.666 0.19,-0.19 0.411,-0.339 0.662,-0.447 0.251,-0.109 0.52,-0.163 0.806,-0.163 0.287,0 0.557,0.056 0.811,0.167 0.254,0.112 0.474,0.261 0.661,0.452 0.187,0.189 0.337,0.412 0.448,0.666 C 4.108,-0.565 4.163,-0.292 4.163,0 4.163,0.304 4.109,0.584 4.001,0.842 3.893,1.099 3.746,1.32 3.558,1.508 3.372,1.694 3.15,1.843 2.897,1.95 2.643,2.059 2.369,2.112 2.077,2.112 1.768,2.112 1.486,2.058 1.232,1.946 0.978,1.835 0.758,1.685 0.574,1.495 0.39,1.305 0.249,1.081 0.149,0.823 0.05,0.566 0,0.293 0,0 m -0.447,-5.828 c 0,-0.392 0.06,-0.745 0.18,-1.061 0.12,-0.315 0.289,-0.584 0.508,-0.805 0.219,-0.223 0.485,-0.394 0.798,-0.513 0.313,-0.12 0.658,-0.181 1.038,-0.181 0.369,0 0.707,0.063 1.017,0.185 0.309,0.123 0.577,0.296 0.802,0.517 0.225,0.222 0.4,0.491 0.525,0.806 0.126,0.317 0.189,0.666 0.189,1.052 0,0.35 -0.06,0.68 -0.18,0.986 C 4.311,-4.535 4.14,-4.266 3.918,-4.031 3.696,-3.798 3.43,-3.613 3.12,-3.479 2.811,-3.345 2.463,-3.277 2.077,-3.277 1.715,-3.277 1.38,-3.341 1.074,-3.466 0.767,-3.592 0.501,-3.768 0.276,-3.992 0.051,-4.217 -0.125,-4.485 -0.254,-4.798 -0.383,-5.111 -0.447,-5.454 -0.447,-5.828 M -2.006,-5.95 c 0,0.333 0.052,0.667 0.157,1.003 0.105,0.337 0.256,0.65 0.451,0.942 0.196,0.292 0.438,0.558 0.728,0.797 0.289,0.24 0.618,0.43 0.986,0.57 -0.544,0.304 -0.976,0.695 -1.297,1.17 -0.322,0.476 -0.482,1.004 -0.482,1.582 0,0.462 0.088,0.889 0.267,1.28 0.178,0.391 0.425,0.73 0.74,1.017 0.316,0.286 0.69,0.509 1.123,0.67 0.432,0.16 0.899,0.24 1.402,0.24 0.508,0 0.978,-0.081 1.41,-0.245 C 3.912,2.913 4.286,2.688 4.602,2.401 4.917,2.115 5.162,1.776 5.337,1.385 5.513,0.993 5.601,0.569 5.601,0.114 5.601,-0.464 5.44,-0.992 5.119,-1.468 4.797,-1.943 4.371,-2.334 3.839,-2.638 4.201,-2.778 4.525,-2.968 4.812,-3.208 5.098,-3.447 5.339,-3.713 5.535,-4.005 5.73,-4.297 5.881,-4.61 5.986,-4.947 6.091,-5.283 6.144,-5.617 6.144,-5.95 6.144,-6.5 6.044,-7.002 5.846,-7.458 5.647,-7.914 5.368,-8.304 5.009,-8.628 4.649,-8.952 4.22,-9.206 3.721,-9.386 3.221,-9.567 2.67,-9.658 2.069,-9.658 c -0.596,0 -1.143,0.091 -1.639,0.272 -0.497,0.18 -0.927,0.434 -1.288,0.758 -0.363,0.324 -0.645,0.714 -0.847,1.17 -0.201,0.456 -0.301,0.958 -0.301,1.508"
           style="fill:#634b28;fill-opacity:1;fill-rule:nonzero;stroke:none"
           id="path1017" />
      </g>
    </g>
  </g>
</svg>
