<?xml version="1.0" encoding="UTF-8" standalone="no"?>
<svg
   xmlns:dc="http://purl.org/dc/elements/1.1/"
   xmlns:cc="http://creativecommons.org/ns#"
   xmlns:rdf="http://www.w3.org/1999/02/22-rdf-syntax-ns#"
   xmlns:svg="http://www.w3.org/2000/svg"
   xmlns="http://www.w3.org/2000/svg"
   width="41.281773mm"
   height="44.082653mm"
   viewBox="0 0 41.281773 44.082653"
   version="1.1"
   id="svg2869">
  <defs
     id="defs2863" />
  <metadata
     id="metadata2866">
    <rdf:RDF>
      <cc:Work
         rdf:about="">
        <dc:format>image/svg+xml</dc:format>
        <dc:type
           rdf:resource="http://purl.org/dc/dcmitype/StillImage" />
        <dc:title></dc:title>
      </cc:Work>
    </rdf:RDF>
  </metadata>
  <g
     id="layer1"
     transform="translate(20.994441,-5.1853324)">
    <g
       id="g3483">
      <g
         id="g705"
         transform="matrix(0.35277777,0,0,-0.35277777,18.035551,7.986282)">
        <path
           d="m 0,0 h -104.253 c -3.525,0 -6.383,-2.858 -6.383,-6.384 v -104.252 c 0,-3.525 2.858,-6.383 6.383,-6.383 H 0 c 3.525,0 6.383,2.858 6.383,6.383 V -6.384 C 6.383,-2.858 3.525,0 0,0"
           style="fill:#c4a766;fill-opacity:1;fill-rule:nonzero;stroke:none"
           id="path707" />
      </g>
      <g
         id="g959"
         transform="matrix(0.35277777,0,0,-0.35277777,20.287261,44.214901)">
        <path
           d="m 0,0 c 0,-3.525 -2.858,-6.383 -6.383,-6.383 h -104.253 c -3.525,0 -6.383,2.858 -6.383,6.383 v 104.252 c 0,3.525 2.858,6.383 6.383,6.383 H -6.383 c 3.525,0 6.383,-2.858 6.383,-6.383 z"
           style="fill:#efdba3;fill-opacity:1;fill-rule:nonzero;stroke:none"
           id="path961" />
      </g>
      <g
         id="g963"
         transform="matrix(0.35277777,0,0,-0.35277777,10.81292,17.670103)">
        <path
           d="m 0,0 -13.329,-49.846 h -9.421 l -9.933,36.663 -9.02,-36.663 h -9.238 L -64.562,0 h 9.531 l 9.64,-36.335 L -36.407,0 h 9.092 L -17.382,-36.335 -7.924,0 Z"
           style="fill:#634b28;fill-opacity:1;fill-rule:nonzero;stroke:none"
           id="path965" />
      </g>
      <g
         id="g967"
         transform="matrix(0.35277777,0,0,-0.35277777,12.460004,39.889599)">
        <path
           d="M 0,0 H 4.286 V 6.151 C 3.848,5.387 3.433,4.703 3.041,4.102 2.649,3.5 2.277,2.954 1.924,2.463 1.57,1.972 1.233,1.527 0.912,1.13 0.59,0.732 0.286,0.356 0,0 M 5.706,8.3 V 0 H 7.318 V -1.315 H 5.706 v -2.954 h -1.42 v 2.954 h -5.907 v 1.245 c 0.549,0.62 1.103,1.281 1.665,1.985 0.561,0.703 1.097,1.418 1.608,2.143 0.511,0.724 0.984,1.447 1.42,2.17 0.435,0.72 0.802,1.412 1.099,2.072 z"
           style="fill:#634b28;fill-opacity:1;fill-rule:nonzero;stroke:none"
           id="path969" />
      </g>
    </g>
  </g>
</svg>
