<?xml version="1.0" encoding="UTF-8" standalone="no"?>
<svg
   xmlns:dc="http://purl.org/dc/elements/1.1/"
   xmlns:cc="http://creativecommons.org/ns#"
   xmlns:rdf="http://www.w3.org/1999/02/22-rdf-syntax-ns#"
   xmlns:svg="http://www.w3.org/2000/svg"
   xmlns="http://www.w3.org/2000/svg"
   width="41.281773mm"
   height="44.083004mm"
   viewBox="0 0 41.281773 44.083004"
   version="1.1"
   id="svg2869">
  <defs
     id="defs2863" />
  <metadata
     id="metadata2866">
    <rdf:RDF>
      <cc:Work
         rdf:about="">
        <dc:format>image/svg+xml</dc:format>
        <dc:type
           rdf:resource="http://purl.org/dc/dcmitype/StillImage" />
        <dc:title></dc:title>
      </cc:Work>
    </rdf:RDF>
  </metadata>
  <g
     id="layer1"
     transform="translate(24.59121,-3.598184)">
    <g
       id="g3747">
      <g
         id="g665"
         transform="matrix(0.35277777,0,0,-0.35277777,14.438782,6.399486)">
        <path
           d="m 0,0 h -104.253 c -3.525,0 -6.383,-2.857 -6.383,-6.382 v -104.254 c 0,-3.525 2.858,-6.383 6.383,-6.383 H 0 c 3.525,0 6.383,2.858 6.383,6.383 V -6.382 C 6.383,-2.857 3.525,0 0,0"
           style="fill:#c4a766;fill-opacity:1;fill-rule:nonzero;stroke:none"
           id="path667" />
      </g>
      <path
         d="m 16.690492,42.628105 c 0,1.243542 -1.007886,2.251781 -2.251781,2.251781 h -36.77814 c -1.243542,0 -2.251781,-1.008239 -2.251781,-2.251781 V 5.849611 c 0,-1.243188 1.008239,-2.251427 2.251781,-2.251427 h 36.77814 c 1.243895,0 2.251781,1.008239 2.251781,2.251427 z"
         style="fill:#efdba3;fill-opacity:1;fill-rule:nonzero;stroke:none;stroke-width:0.352778"
         id="path841" />
      <g
         id="g843"
         transform="matrix(0.35277777,0,0,-0.35277777,2.168712,15.311605)">
        <path
           d="m 0,0 v -32.024 c 0,-4.334 -0.487,-7.669 -1.46,-10.006 -0.974,-2.337 -2.854,-4.353 -5.643,-6.044 -2.787,-1.693 -6.188,-2.537 -10.206,-2.537 -4.066,0 -7.407,0.728 -10.023,2.189 -2.617,1.461 -4.498,3.463 -5.643,6.008 -1.144,2.543 -1.716,5.788 -1.716,9.732 V 0 h 9.166 v -32.024 c 0,-4.382 0.919,-7.262 2.756,-8.637 1.838,-1.376 3.975,-2.064 6.41,-2.064 2.798,0 5.039,0.737 6.719,2.209 1.68,1.473 2.52,4.303 2.52,8.492 L -7.12,0 Z"
           style="fill:#634b28;fill-opacity:1;fill-rule:nonzero;stroke:none"
           id="path845" />
      </g>
      <g
         id="g847"
         transform="matrix(0.35277777,0,0,-0.35277777,9.707291,39.55407)">
        <path
           d="M 0,0 H -1.437 V 10.858 C -1.549,10.747 -1.711,10.621 -1.925,10.478 -2.138,10.335 -2.377,10.193 -2.643,10.053 -2.908,9.912 -3.188,9.78 -3.484,9.658 -3.779,9.535 -4.067,9.439 -4.348,9.369 v 1.454 c 0.316,0.088 0.651,0.206 1.004,0.355 0.354,0.15 0.701,0.316 1.042,0.501 0.343,0.182 0.666,0.377 0.969,0.577 0.304,0.202 0.567,0.399 0.789,0.592 H 0 Z"
           style="fill:#634b28;fill-opacity:1;fill-rule:nonzero;stroke:none"
           id="path849" />
      </g>
    </g>
  </g>
</svg>
