<?xml version="1.0" encoding="UTF-8" standalone="no"?>
<svg
   xmlns:dc="http://purl.org/dc/elements/1.1/"
   xmlns:cc="http://creativecommons.org/ns#"
   xmlns:rdf="http://www.w3.org/1999/02/22-rdf-syntax-ns#"
   xmlns:svg="http://www.w3.org/2000/svg"
   xmlns="http://www.w3.org/2000/svg"
   width="41.282124mm"
   height="44.082829mm"
   viewBox="0 0 41.282124 44.082829"
   version="1.1"
   id="svg2869">
  <defs
     id="defs2863" />
  <metadata
     id="metadata2866">
    <rdf:RDF>
      <cc:Work
         rdf:about="">
        <dc:format>image/svg+xml</dc:format>
        <dc:type
           rdf:resource="http://purl.org/dc/dcmitype/StillImage" />
        <dc:title></dc:title>
      </cc:Work>
    </rdf:RDF>
  </metadata>
  <g
     id="layer1"
     transform="translate(0.33558665,17.998289)">
    <g
       id="g6275"
       transform="translate(-40.624968,16.83798)">
      <g
         id="g637"
         transform="matrix(0.35277777,0,0,-0.35277777,79.319726,-32.035144)">
        <path
           d="m 0,0 h -104.254 c -3.525,0 -6.383,-2.858 -6.383,-6.383 v -104.253 c 0,-3.525 2.858,-6.383 6.383,-6.383 H 0 c 3.524,0 6.383,2.858 6.383,6.383 V -6.383 C 6.383,-2.858 3.524,0 0,0"
           style="fill:#c4a766;fill-opacity:1;fill-rule:nonzero;stroke:none"
           id="path639" />
      </g>
      <g
         id="g757"
         transform="matrix(0.35277777,0,0,-0.35277777,81.571436,4.193652)">
        <path
           d="m 0,0 c 0,-3.525 -2.858,-6.383 -6.383,-6.383 h -104.254 c -3.525,0 -6.383,2.858 -6.383,6.383 v 104.253 c 0,3.526 2.858,6.383 6.383,6.383 H -6.383 c 3.525,0 6.383,-2.857 6.383,-6.383 z"
           style="fill:#efdba3;fill-opacity:1;fill-rule:nonzero;stroke:none"
           id="path759" />
      </g>
      <path
         d="m 62.337956,-5.594697 h -3.169002 v -17.58456 h 3.169002 z"
         style="fill:#634b28;fill-opacity:1;fill-rule:nonzero;stroke:none;stroke-width:0.352778"
         id="path761" />
      <g
         id="g763"
         transform="matrix(0.35277777,0,0,-0.35277777,73.64392,1.119617)">
        <path
           d="M 0,0 H -1.437 V 10.859 C -1.549,10.748 -1.711,10.621 -1.924,10.478 -2.137,10.334 -2.377,10.193 -2.642,10.052 -2.908,9.913 -3.189,9.781 -3.483,9.658 -3.779,9.536 -4.066,9.439 -4.348,9.37 v 1.454 c 0.317,0.088 0.651,0.206 1.004,0.355 0.354,0.149 0.702,0.316 1.043,0.499 0.342,0.185 0.664,0.377 0.969,0.579 0.304,0.202 0.566,0.398 0.789,0.592 H 0 Z"
           style="fill:#634b28;fill-opacity:1;fill-rule:nonzero;stroke:none"
           id="path765" />
      </g>
    </g>
  </g>
</svg>
