<?xml version="1.0" encoding="UTF-8" standalone="no"?>
<svg
   xmlns:dc="http://purl.org/dc/elements/1.1/"
   xmlns:cc="http://creativecommons.org/ns#"
   xmlns:rdf="http://www.w3.org/1999/02/22-rdf-syntax-ns#"
   xmlns:svg="http://www.w3.org/2000/svg"
   xmlns="http://www.w3.org/2000/svg"
   width="41.281784mm"
   height="44.080814mm"
   viewBox="0 0 41.281784 44.080814"
   version="1.1"
   id="svg2869">
  <defs
     id="defs2863" />
  <metadata
     id="metadata2866">
    <rdf:RDF>
      <cc:Work
         rdf:about="">
        <dc:format>image/svg+xml</dc:format>
        <dc:type
           rdf:resource="http://purl.org/dc/dcmitype/StillImage" />
        <dc:title></dc:title>
      </cc:Work>
    </rdf:RDF>
  </metadata>
  <g
     id="layer1"
     transform="translate(-10.355565,-38.809303)">
    <g
       id="g5459"
       transform="translate(-94.346143,-27.261492)">
      <g
         id="g685"
         transform="matrix(0.35277777,0,0,-0.35277777,143.73171,68.872024)">
        <path
           d="m 0,0 h -104.253 c -3.525,0 -6.383,-2.858 -6.383,-6.383 V -110.63 c 0,-3.525 2.858,-6.383 6.383,-6.383 H 0 c 3.525,0 6.383,2.858 6.383,6.383 V -6.383 C 6.383,-2.858 3.525,0 0,0"
           style="fill:#c4a766;fill-opacity:1;fill-rule:nonzero;stroke:none"
           id="path687" />
      </g>
      <g
         id="g899"
         transform="matrix(0.35277777,0,0,-0.35277777,145.98341,105.0986)">
        <path
           d="m 0,0 c 0,-3.525 -2.857,-6.384 -6.383,-6.384 h -104.253 c -3.525,0 -6.383,2.859 -6.383,6.384 v 104.247 c 0,3.525 2.858,6.383 6.383,6.383 H -6.383 c 3.526,0 6.383,-2.858 6.383,-6.383 z"
           style="fill:#efdba3;fill-opacity:1;fill-rule:nonzero;stroke:none"
           id="path901" />
      </g>
      <g
         id="g903"
         transform="matrix(0.35277777,0,0,-0.35277777,135.13085,96.605747)">
        <path
           d="M 0,0 H -9.166 V 43.639 L -22.969,0 H -27.68 L -41.557,43.639 V 0 h -7.339 v 49.846 h 14.059 l 10.443,-32.098 10.262,32.098 H 0 Z"
           style="fill:#634b28;fill-opacity:1;fill-rule:nonzero;stroke:none"
           id="path905" />
      </g>
      <g
         id="g907"
         transform="matrix(0.35277777,0,0,-0.35277777,140.4835,100.10252)">
        <path
           d="m 0,0 c 0,-0.566 -0.106,-1.081 -0.32,-1.546 -0.213,-0.465 -0.514,-0.862 -0.903,-1.192 -0.388,-0.33 -0.854,-0.586 -1.397,-0.767 -0.544,-0.182 -1.143,-0.271 -1.797,-0.271 -1.198,0 -2.15,0.227 -2.857,0.682 v 1.544 c 0.847,-0.667 1.817,-1 2.909,-1 0.439,0 0.835,0.055 1.188,0.166 0.354,0.112 0.657,0.273 0.912,0.483 0.254,0.211 0.45,0.464 0.587,0.762 0.137,0.298 0.206,0.634 0.206,1.008 0,1.643 -1.169,2.462 -3.506,2.462 H -6.021 V 3.55 h 0.991 c 2.068,0 3.102,0.771 3.102,2.313 0,1.426 -0.789,2.139 -2.366,2.139 -0.888,0 -1.721,-0.298 -2.498,-0.894 v 1.394 c 0.8,0.479 1.753,0.719 2.857,0.719 0.526,0 1.002,-0.074 1.429,-0.22 0.426,-0.147 0.791,-0.35 1.095,-0.613 0.304,-0.263 0.539,-0.578 0.706,-0.947 0.166,-0.368 0.249,-0.774 0.249,-1.217 0,-1.655 -0.835,-2.718 -2.506,-3.191 V 2.998 c 0.427,-0.047 0.821,-0.15 1.183,-0.311 0.362,-0.161 0.675,-0.37 0.938,-0.626 0.263,-0.258 0.468,-0.56 0.618,-0.909 C -0.074,0.806 0,0.421 0,0"
           style="fill:#634b28;fill-opacity:1;fill-rule:nonzero;stroke:none"
           id="path909" />
      </g>
    </g>
  </g>
</svg>
