<?xml version="1.0" encoding="UTF-8" standalone="no"?>
<svg
   xmlns:dc="http://purl.org/dc/elements/1.1/"
   xmlns:cc="http://creativecommons.org/ns#"
   xmlns:rdf="http://www.w3.org/1999/02/22-rdf-syntax-ns#"
   xmlns:svg="http://www.w3.org/2000/svg"
   xmlns="http://www.w3.org/2000/svg"
   width="41.281773mm"
   height="44.082829mm"
   viewBox="0 0 41.281773 44.082829"
   version="1.1"
   id="svg2869">
  <defs
     id="defs2863" />
  <metadata
     id="metadata2866">
    <rdf:RDF>
      <cc:Work
         rdf:about="">
        <dc:format>image/svg+xml</dc:format>
        <dc:type
           rdf:resource="http://purl.org/dc/dcmitype/StillImage" />
        <dc:title></dc:title>
      </cc:Work>
    </rdf:RDF>
  </metadata>
  <g
     id="layer1"
     transform="translate(23.431386,-0.02749964)">
    <g
       id="g6801"
       transform="translate(-61.204722,-22.45064)">
      <g
         id="g633"
         transform="matrix(0.35277777,0,0,-0.35277777,76.803328,25.279265)">
        <path
           d="m 0,0 h -104.253 c -3.525,0 -6.383,-2.858 -6.383,-6.383 v -104.253 c 0,-3.525 2.858,-6.383 6.383,-6.383 H 0 c 3.525,0 6.383,2.858 6.383,6.383 V -6.383 C 6.383,-2.858 3.525,0 0,0"
           style="fill:#c4a766;fill-opacity:1;fill-rule:nonzero;stroke:none"
           id="path635" />
      </g>
      <g
         id="g745"
         transform="matrix(0.35277777,0,0,-0.35277777,79.055038,61.508061)">
        <path
           d="m 0,0 c 0,-3.525 -2.858,-6.383 -6.383,-6.383 h -104.253 c -3.525,0 -6.383,2.858 -6.383,6.383 v 104.253 c 0,3.526 2.858,6.383 6.383,6.383 H -6.383 c 3.525,0 6.383,-2.857 6.383,-6.383 z"
           style="fill:#efdba3;fill-opacity:1;fill-rule:nonzero;stroke:none"
           id="path747" />
      </g>
      <g
         id="g749"
         transform="matrix(0.35277777,0,0,-0.35277777,64.127638,51.719854)">
        <path
           d="M 0,0 H -32.391 V 49.846 H -0.329 V 42.433 H -23.408 V 28.921 h 18.551 v -7.23 H -23.408 V 7.742 H 0 Z"
           style="fill:#634b28;fill-opacity:1;fill-rule:nonzero;stroke:none"
           id="path751" />
      </g>
      <g
         id="g753"
         transform="matrix(0.35277777,0,0,-0.35277777,72.801518,58.434026)">
        <path
           d="M 0,0 H -1.437 V 10.859 C -1.548,10.748 -1.71,10.621 -1.923,10.478 -2.137,10.334 -2.376,10.193 -2.643,10.052 -2.908,9.913 -3.188,9.781 -3.484,9.658 -3.779,9.536 -4.066,9.439 -4.347,9.37 v 1.454 c 0.316,0.088 0.65,0.206 1.004,0.355 0.353,0.149 0.7,0.316 1.043,0.499 0.342,0.185 0.664,0.377 0.968,0.579 0.304,0.202 0.567,0.398 0.789,0.592 H 0 Z"
           style="fill:#634b28;fill-opacity:1;fill-rule:nonzero;stroke:none"
           id="path755" />
      </g>
    </g>
  </g>
</svg>
