<?xml version="1.0" encoding="UTF-8" standalone="no"?>
<svg
   xmlns:dc="http://purl.org/dc/elements/1.1/"
   xmlns:cc="http://creativecommons.org/ns#"
   xmlns:rdf="http://www.w3.org/1999/02/22-rdf-syntax-ns#"
   xmlns:svg="http://www.w3.org/2000/svg"
   xmlns="http://www.w3.org/2000/svg"
   width="41.281807mm"
   height="44.082825mm"
   viewBox="0 0 41.281807 44.082825"
   version="1.1"
   id="svg2869">
  <defs
     id="defs2863" />
  <metadata
     id="metadata2866">
    <rdf:RDF>
      <cc:Work
         rdf:about="">
        <dc:format>image/svg+xml</dc:format>
        <dc:type
           rdf:resource="http://purl.org/dc/dcmitype/StillImage" />
        <dc:title></dc:title>
      </cc:Work>
    </rdf:RDF>
  </metadata>
  <g
     id="layer1"
     transform="translate(-34.38429,-38.068899)">
    <g
       id="g7313">
      <g
         id="g677"
         transform="matrix(0.35277777,0,0,-0.35277777,73.414211,40.87002)">
        <path
           d="m 0,0 h -104.253 c -3.525,0 -6.383,-2.858 -6.383,-6.383 v -104.253 c 0,-3.526 2.858,-6.383 6.383,-6.383 H 0 c 3.525,0 6.383,2.857 6.383,6.383 V -6.383 C 6.383,-2.858 3.525,0 0,0"
           style="fill:#c4a766;fill-opacity:1;fill-rule:nonzero;stroke:none"
           id="path679" />
      </g>
      <g
         id="g875"
         transform="matrix(0.35277777,0,0,-0.35277777,75.666097,77.09882)">
        <path
           d="m 0,0 c 0,-3.525 -2.858,-6.383 -6.383,-6.383 h -104.253 c -3.525,0 -6.383,2.858 -6.383,6.383 v 104.253 c 0,3.525 2.858,6.383 6.383,6.383 H -6.383 c 3.525,0 6.383,-2.858 6.383,-6.383 z"
           style="fill:#efdba3;fill-opacity:1;fill-rule:nonzero;stroke:none"
           id="path877" />
      </g>
      <g
         id="g879"
         transform="matrix(0.35277777,0,0,-0.35277777,52.476462,63.759406)">
        <path
           d="m 0,0 h 11.613 c 2.458,0 4.4,0.645 5.824,1.935 1.424,1.291 2.136,3.031 2.136,5.222 0,2.093 -0.724,3.809 -2.173,5.149 -1.448,1.339 -3.365,2.008 -5.751,2.008 H 0 Z m 0,21.436 h 10.955 c 2.24,0 4.011,0.669 5.314,2.007 1.302,1.339 1.953,3.044 1.953,5.113 0,2.288 -0.743,3.974 -2.227,5.057 -1.485,1.083 -3.226,1.625 -5.222,1.625 H 0 Z M -8.508,-7.486 v 49.845 h 19.427 c 3.286,0 6.013,-0.341 8.18,-1.022 2.167,-0.682 4.041,-2.106 5.623,-4.272 1.582,-2.167 2.374,-4.711 2.374,-7.633 0,-2.751 -0.804,-5.143 -2.41,-7.175 -1.607,-2.033 -3.823,-3.33 -6.646,-3.889 3.505,-0.609 6.158,-2.034 7.96,-4.273 1.801,-2.239 2.703,-4.893 2.703,-7.961 0,-3.846 -1.26,-7.078 -3.78,-9.695 -2.52,-2.617 -6.397,-3.925 -11.631,-3.925 z"
           style="fill:#634b28;fill-opacity:1;fill-rule:nonzero;stroke:none"
           id="path881" />
      </g>
      <g
         id="g883"
         transform="matrix(0.35277777,0,0,-0.35277777,69.310911,72.59589)">
        <path
           d="m 0,0 c 0,-0.567 -0.107,-1.083 -0.32,-1.547 -0.214,-0.465 -0.514,-0.862 -0.903,-1.192 -0.388,-0.33 -0.855,-0.585 -1.398,-0.766 -0.543,-0.182 -1.142,-0.272 -1.797,-0.272 -1.197,0 -2.149,0.228 -2.856,0.683 v 1.543 c 0.847,-0.667 1.816,-1 2.909,-1 0.438,0 0.834,0.056 1.188,0.167 0.353,0.111 0.656,0.272 0.911,0.482 0.254,0.21 0.45,0.465 0.587,0.762 0.138,0.299 0.206,0.635 0.206,1.009 0,1.641 -1.169,2.462 -3.506,2.462 H -6.021 V 3.55 h 0.99 c 2.068,0 3.103,0.771 3.103,2.313 0,1.426 -0.789,2.139 -2.367,2.139 -0.888,0 -1.72,-0.299 -2.497,-0.895 v 1.394 c 0.8,0.479 1.752,0.718 2.856,0.718 0.526,0 1.002,-0.072 1.429,-0.219 0.426,-0.146 0.792,-0.35 1.096,-0.613 0.303,-0.263 0.538,-0.579 0.705,-0.947 0.167,-0.367 0.25,-0.774 0.25,-1.218 0,-1.654 -0.836,-2.716 -2.507,-3.19 V 2.998 C -2.536,2.951 -2.142,2.847 -1.78,2.686 -1.417,2.526 -1.104,2.317 -0.842,2.059 -0.579,1.802 -0.373,1.5 -0.224,1.152 -0.075,0.805 0,0.421 0,0"
           style="fill:#634b28;fill-opacity:1;fill-rule:nonzero;stroke:none"
           id="path885" />
      </g>
    </g>
  </g>
</svg>
