<?xml version="1.0" encoding="UTF-8" standalone="no"?>
<svg
   xmlns:dc="http://purl.org/dc/elements/1.1/"
   xmlns:cc="http://creativecommons.org/ns#"
   xmlns:rdf="http://www.w3.org/1999/02/22-rdf-syntax-ns#"
   xmlns:svg="http://www.w3.org/2000/svg"
   xmlns="http://www.w3.org/2000/svg"
   width="41.281773mm"
   height="44.082653mm"
   viewBox="0 0 41.281773 44.082653"
   version="1.1"
   id="svg2869">
  <defs
     id="defs2863" />
  <metadata
     id="metadata2866">
    <rdf:RDF>
      <cc:Work
         rdf:about="">
        <dc:format>image/svg+xml</dc:format>
        <dc:type
           rdf:resource="http://purl.org/dc/dcmitype/StillImage" />
        <dc:title></dc:title>
      </cc:Work>
    </rdf:RDF>
  </metadata>
  <g
     id="layer1"
     transform="translate(-42.250961,-4.5965121)">
    <g
       id="g3010"
       transform="translate(-1.3229167,-8.5044643)">
      <g
         id="g729"
         transform="matrix(0.35277777,0,0,-0.35277777,82.60387,15.901926)">
        <path
           d="m 0,0 h -104.253 c -3.525,0 -6.383,-2.858 -6.383,-6.384 v -104.252 c 0,-3.525 2.858,-6.383 6.383,-6.383 H 0 c 3.525,0 6.383,2.858 6.383,6.383 V -6.384 C 6.383,-2.858 3.525,0 0,0"
           style="fill:#c4a766;fill-opacity:1;fill-rule:nonzero;stroke:none"
           id="path731" />
      </g>
      <g
         id="g1035"
         transform="matrix(0.35277777,0,0,-0.35277777,84.85558,52.130545)">
        <path
           d="m 0,0 c 0,-3.525 -2.857,-6.383 -6.383,-6.383 h -104.253 c -3.525,0 -6.383,2.858 -6.383,6.383 v 104.252 c 0,3.525 2.858,6.383 6.383,6.383 H -6.383 c 3.526,0 6.383,-2.858 6.383,-6.383 z"
           style="fill:#efdba3;fill-opacity:1;fill-rule:nonzero;stroke:none"
           id="path1037" />
      </g>
      <g
         id="g1039"
         transform="matrix(0.35277777,0,0,-0.35277777,70.71413,39.802973)">
        <path
           d="m 0,0 v -7.74 h -36.846 v 7.083 l 25.525,35.64 h -23.737 v 7.121 H -0.73 V 34.983 L -25.965,0 Z"
           style="fill:#634b28;fill-opacity:1;fill-rule:nonzero;stroke:none"
           id="path1041" />
      </g>
      <g
         id="g1043"
         transform="matrix(0.35277777,0,0,-0.35277777,76.474709,49.321764)">
        <path
           d="M 0,0 H -1.437 V 10.858 C -1.549,10.748 -1.711,10.621 -1.924,10.478 -2.137,10.334 -2.376,10.192 -2.642,10.052 -2.908,9.911 -3.189,9.78 -3.483,9.658 -3.779,9.536 -4.066,9.438 -4.348,9.368 v 1.455 c 0.317,0.088 0.651,0.206 1.004,0.355 0.354,0.15 0.702,0.316 1.043,0.501 0.343,0.183 0.664,0.377 0.969,0.578 0.304,0.201 0.566,0.398 0.789,0.591 H 0 Z"
           style="fill:#634b28;fill-opacity:1;fill-rule:nonzero;stroke:none"
           id="path1045" />
      </g>
      <g
         id="g1047"
         transform="matrix(0.35277777,0,0,-0.35277777,80.28358,47.135847)">
        <path
           d="m 0,0 c 0,3.576 -0.85,5.363 -2.55,5.363 -1.794,0 -2.69,-1.82 -2.69,-5.46 0,-3.394 0.879,-5.092 2.637,-5.092 C -0.867,-5.189 0,-3.459 0,0 m 1.474,0.141 c 0,-1.053 -0.096,-1.985 -0.286,-2.797 -0.189,-0.812 -0.464,-1.496 -0.824,-2.055 -0.359,-0.559 -0.8,-0.981 -1.324,-1.27 -0.522,-0.29 -1.116,-0.435 -1.782,-0.435 -0.631,0 -1.195,0.139 -1.688,0.417 -0.494,0.277 -0.909,0.682 -1.249,1.214 -0.339,0.531 -0.595,1.184 -0.771,1.959 -0.175,0.774 -0.263,1.66 -0.263,2.66 0,1.098 0.092,2.068 0.276,2.909 0.185,0.841 0.455,1.547 0.811,2.116 0.355,0.57 0.799,1 1.328,1.289 0.528,0.289 1.135,0.433 1.819,0.433 2.634,0 3.953,-2.146 3.953,-6.44"
           style="fill:#634b28;fill-opacity:1;fill-rule:nonzero;stroke:none"
           id="path1049" />
      </g>
    </g>
  </g>
</svg>
