<?xml version="1.0" encoding="UTF-8" standalone="no"?>
<svg
   xmlns:dc="http://purl.org/dc/elements/1.1/"
   xmlns:cc="http://creativecommons.org/ns#"
   xmlns:rdf="http://www.w3.org/1999/02/22-rdf-syntax-ns#"
   xmlns:svg="http://www.w3.org/2000/svg"
   xmlns="http://www.w3.org/2000/svg"
   width="41.281773mm"
   height="44.082829mm"
   viewBox="0 0 41.281773 44.082829"
   version="1.1"
   id="svg2869">
  <defs
     id="defs2863" />
  <metadata
     id="metadata2866">
    <rdf:RDF>
      <cc:Work
         rdf:about="">
        <dc:format>image/svg+xml</dc:format>
        <dc:type
           rdf:resource="http://purl.org/dc/dcmitype/StillImage" />
        <dc:title></dc:title>
      </cc:Work>
    </rdf:RDF>
  </metadata>
  <g
     id="layer1"
     transform="translate(-22.71104,13.217098)">
    <g
       id="g6045">
      <g
         id="g717"
         transform="matrix(0.35277777,0,0,-0.35277777,61.741032,-10.415973)">
        <path
           d="m 0,0 h -104.253 c -3.525,0 -6.383,-2.858 -6.383,-6.383 v -104.253 c 0,-3.525 2.858,-6.383 6.383,-6.383 H 0 c 3.525,0 6.383,2.858 6.383,6.383 V -6.383 C 6.383,-2.858 3.525,0 0,0"
           style="fill:#c4a766;fill-opacity:1;fill-rule:nonzero;stroke:none"
           id="path719" />
      </g>
      <g
         id="g995"
         transform="matrix(0.35277777,0,0,-0.35277777,63.992742,25.812823)">
        <path
           d="m 0,0 c 0,-3.525 -2.857,-6.383 -6.383,-6.383 h -104.253 c -3.525,0 -6.383,2.858 -6.383,6.383 v 104.253 c 0,3.526 2.858,6.383 6.383,6.383 H -6.383 c 3.526,0 6.383,-2.857 6.383,-6.383 z"
           style="fill:#efdba3;fill-opacity:1;fill-rule:nonzero;stroke:none"
           id="path997" />
      </g>
      <g
         id="g999"
         transform="matrix(0.35277777,0,0,-0.35277777,47.371194,-1.6948827)">
        <path
           d="m 0,0 v -34.398 c 0,-5.722 -1.236,-9.854 -3.706,-12.398 -2.472,-2.544 -6.409,-3.817 -11.814,-3.817 -3.116,0 -5.539,0.256 -7.266,0.767 v 7.231 c 2.725,-0.195 4.649,-0.293 5.768,-0.293 2.996,0 5.039,0.561 6.136,1.68 1.095,1.12 1.644,3.397 1.644,6.83 V 0 Z"
           style="fill:#634b28;fill-opacity:1;fill-rule:nonzero;stroke:none"
           id="path1001" />
      </g>
      <g
         id="g1003"
         transform="matrix(0.35277777,0,0,-0.35277777,56.586455,19.354661)">
        <path
           d="m 0,0 c 0,-0.298 0.054,-0.575 0.162,-0.828 0.108,-0.255 0.258,-0.476 0.447,-0.667 0.19,-0.189 0.411,-0.338 0.662,-0.447 0.251,-0.108 0.52,-0.162 0.806,-0.162 0.286,0 0.557,0.056 0.811,0.167 0.254,0.111 0.475,0.261 0.662,0.452 0.187,0.189 0.336,0.411 0.447,0.666 0.11,0.254 0.166,0.527 0.166,0.819 0,0.304 -0.055,0.584 -0.162,0.842 C 3.893,1.099 3.745,1.32 3.559,1.507 3.371,1.694 3.151,1.842 2.896,1.95 2.643,2.058 2.37,2.112 2.077,2.112 1.768,2.112 1.485,2.057 1.231,1.946 0.977,1.835 0.758,1.684 0.574,1.495 0.39,1.304 0.249,1.081 0.149,0.824 0.05,0.566 0,0.292 0,0 m -0.447,-5.829 c 0,-0.391 0.059,-0.744 0.18,-1.06 0.12,-0.315 0.289,-0.584 0.508,-0.806 0.219,-0.222 0.486,-0.393 0.798,-0.513 0.312,-0.12 0.658,-0.18 1.038,-0.18 0.368,0 0.707,0.062 1.017,0.185 0.309,0.122 0.577,0.295 0.802,0.517 0.225,0.222 0.4,0.49 0.525,0.806 0.126,0.316 0.189,0.667 0.189,1.051 0,0.351 -0.06,0.68 -0.179,0.987 C 4.311,-4.536 4.14,-4.266 3.917,-4.031 3.695,-3.798 3.431,-3.614 3.12,-3.479 2.811,-3.345 2.462,-3.277 2.077,-3.277 1.715,-3.277 1.38,-3.34 1.073,-3.466 0.767,-3.592 0.501,-3.768 0.276,-3.993 0.051,-4.217 -0.126,-4.486 -0.254,-4.798 -0.382,-5.111 -0.447,-5.455 -0.447,-5.829 m -1.56,-0.122 c 0,0.333 0.053,0.668 0.157,1.004 0.106,0.336 0.256,0.65 0.453,0.942 0.195,0.292 0.437,0.558 0.726,0.797 0.29,0.239 0.619,0.43 0.986,0.569 -0.543,0.305 -0.975,0.694 -1.296,1.171 -0.323,0.476 -0.483,1.004 -0.483,1.582 0,0.462 0.09,0.887 0.268,1.28 0.178,0.391 0.425,0.731 0.74,1.017 0.316,0.285 0.69,0.509 1.122,0.67 0.433,0.16 0.899,0.24 1.402,0.24 0.508,0 0.979,-0.081 1.411,-0.245 C 3.912,2.913 4.286,2.688 4.602,2.401 4.917,2.115 5.162,1.776 5.337,1.385 5.513,0.994 5.601,0.57 5.601,0.114 5.601,-0.464 5.439,-0.992 5.118,-1.468 4.798,-1.945 4.37,-2.334 3.839,-2.639 4.201,-2.778 4.525,-2.969 4.812,-3.208 5.098,-3.447 5.339,-3.713 5.535,-4.005 5.73,-4.297 5.88,-4.611 5.986,-4.947 6.091,-5.283 6.145,-5.618 6.145,-5.951 6.145,-6.5 6.044,-7.002 5.846,-7.458 5.647,-7.914 5.368,-8.304 5.009,-8.628 4.649,-8.952 4.22,-9.206 3.721,-9.386 3.22,-9.567 2.67,-9.658 2.068,-9.658 c -0.596,0 -1.142,0.091 -1.638,0.272 -0.497,0.18 -0.926,0.434 -1.288,0.758 -0.363,0.324 -0.645,0.714 -0.846,1.17 -0.202,0.456 -0.303,0.958 -0.303,1.507"
           style="fill:#634b28;fill-opacity:1;fill-rule:nonzero;stroke:none"
           id="path1005" />
      </g>
    </g>
  </g>
</svg>
