<?xml version="1.0" encoding="UTF-8" standalone="no"?>
<svg
   xmlns:dc="http://purl.org/dc/elements/1.1/"
   xmlns:cc="http://creativecommons.org/ns#"
   xmlns:rdf="http://www.w3.org/1999/02/22-rdf-syntax-ns#"
   xmlns:svg="http://www.w3.org/2000/svg"
   xmlns="http://www.w3.org/2000/svg"
   width="41.281773mm"
   height="44.083004mm"
   viewBox="0 0 41.281773 44.083004"
   version="1.1"
   id="svg2869">
  <defs
     id="defs2863" />
  <metadata
     id="metadata2866">
    <rdf:RDF>
      <cc:Work
         rdf:about="">
        <dc:format>image/svg+xml</dc:format>
        <dc:type
           rdf:resource="http://purl.org/dc/dcmitype/StillImage" />
        <dc:title></dc:title>
      </cc:Work>
    </rdf:RDF>
  </metadata>
  <g
     id="layer1"
     transform="translate(-13.494825,-37.082666)">
    <g
       id="g725"
       transform="matrix(0.35277777,0,0,-0.35277777,52.524817,39.883968)">
      <path
         d="m 0,0 h -104.253 c -3.525,0 -6.383,-2.857 -6.383,-6.382 v -104.254 c 0,-3.525 2.858,-6.383 6.383,-6.383 H 0 c 3.525,0 6.383,2.858 6.383,6.383 V -6.382 C 6.383,-2.857 3.525,0 0,0"
         style="fill:#c4a766;fill-opacity:1;fill-rule:nonzero;stroke:none"
         id="path727" />
    </g>
    <g
       id="g1019"
       transform="matrix(0.35277777,0,0,-0.35277777,54.776527,76.112587)">
      <path
         d="m 0,0 c 0,-3.525 -2.858,-6.383 -6.383,-6.383 h -104.253 c -3.525,0 -6.383,2.858 -6.383,6.383 v 104.254 c 0,3.524 2.858,6.382 6.383,6.382 H -6.383 c 3.525,0 6.383,-2.858 6.383,-6.382 z"
         style="fill:#efdba3;fill-opacity:1;fill-rule:nonzero;stroke:none"
         id="path1021" />
    </g>
    <g
       id="g1023"
       transform="matrix(0.35277777,0,0,-0.35277777,34.052068,62.490003)">
      <path
         d="m 0,0 c 7.791,0 11.685,6.136 11.685,18.405 0,6.524 -1.04,11.229 -3.122,14.114 -2.081,2.884 -4.827,4.327 -8.234,4.327 -7.718,0 -11.577,-6.306 -11.577,-18.916 C -11.248,5.977 -7.498,0 0,0 m 19.39,-9.202 v -7.523 c -2.872,-0.218 -4.577,-0.329 -5.112,-0.329 -7.376,0 -11.077,3.227 -11.101,9.678 -1.826,-0.098 -2.934,-0.146 -3.323,-0.146 -6.671,0 -11.808,2.452 -15.411,7.358 -3.602,4.904 -5.403,11.095 -5.403,18.569 0,7.327 1.855,13.438 5.568,18.331 3.712,4.893 8.928,7.34 15.647,7.34 4.893,0 8.788,-1.144 11.686,-3.432 2.897,-2.29 5.204,-5.295 6.92,-9.02 1.716,-3.725 2.575,-8.096 2.575,-13.109 0,-10.689 -3.543,-18.332 -10.627,-22.933 -1.12,-0.73 -1.68,-1.363 -1.68,-1.899 0,-0.852 0.371,-1.582 1.114,-2.192 0.742,-0.608 1.758,-0.913 3.049,-0.913 0.876,0 2.179,0.049 3.908,0.148 0.486,0.023 1.217,0.048 2.19,0.072"
         style="fill:#634b28;fill-opacity:1;fill-rule:nonzero;stroke:none"
         id="path1025" />
    </g>
    <g
       id="g1027"
       transform="matrix(0.35277777,0,0,-0.35277777,47.125659,72.999605)">
      <path
         d="M 0,0 H -1.437 V 10.858 C -1.549,10.747 -1.711,10.619 -1.924,10.477 -2.137,10.333 -2.377,10.191 -2.643,10.052 -2.908,9.911 -3.189,9.78 -3.484,9.657 -3.779,9.534 -4.067,9.438 -4.348,9.368 v 1.454 c 0.316,0.088 0.651,0.207 1.004,0.356 0.354,0.148 0.701,0.315 1.043,0.499 0.342,0.184 0.665,0.377 0.968,0.579 0.304,0.201 0.567,0.398 0.789,0.592 H 0 Z"
         style="fill:#634b28;fill-opacity:1;fill-rule:nonzero;stroke:none"
         id="path1029" />
    </g>
    <g
       id="g1031"
       transform="matrix(0.35277777,0,0,-0.35277777,50.934566,70.814394)">
      <path
         d="m 0,0 c 0,3.576 -0.85,5.364 -2.55,5.364 -1.794,0 -2.691,-1.819 -2.691,-5.46 0,-3.394 0.88,-5.091 2.638,-5.091 C -0.867,-5.187 0,-3.458 0,0 M 1.472,0.141 C 1.472,-0.91 1.377,-1.843 1.187,-2.654 0.998,-3.467 0.723,-4.152 0.364,-4.709 0.005,-5.268 -0.437,-5.691 -0.959,-5.98 c -0.523,-0.29 -1.118,-0.434 -1.784,-0.434 -0.631,0 -1.194,0.139 -1.687,0.416 -0.494,0.278 -0.91,0.683 -1.249,1.214 -0.339,0.532 -0.596,1.184 -0.771,1.959 -0.175,0.773 -0.263,1.66 -0.263,2.659 0,1.099 0.092,2.068 0.276,2.91 0.184,0.842 0.454,1.547 0.811,2.117 0.356,0.57 0.798,0.998 1.327,1.288 0.529,0.289 1.135,0.434 1.819,0.434 2.635,0 3.952,-2.147 3.952,-6.442"
         style="fill:#634b28;fill-opacity:1;fill-rule:nonzero;stroke:none"
         id="path1033" />
    </g>
  </g>
</svg>
