<?xml version="1.0" encoding="UTF-8" standalone="no"?>
<svg
   xmlns:dc="http://purl.org/dc/elements/1.1/"
   xmlns:cc="http://creativecommons.org/ns#"
   xmlns:rdf="http://www.w3.org/1999/02/22-rdf-syntax-ns#"
   xmlns:svg="http://www.w3.org/2000/svg"
   xmlns="http://www.w3.org/2000/svg"
   width="41.281773mm"
   height="44.083004mm"
   viewBox="0 0 41.281773 44.083004"
   version="1.1"
   id="svg2869">
  <defs
     id="defs2863" />
  <metadata
     id="metadata2866">
    <rdf:RDF>
      <cc:Work
         rdf:about="">
        <dc:format>image/svg+xml</dc:format>
        <dc:type
           rdf:resource="http://purl.org/dc/dcmitype/StillImage" />
        <dc:title></dc:title>
      </cc:Work>
    </rdf:RDF>
  </metadata>
  <g
     id="layer1"
     transform="translate(40.548988,-0.02794164)">
    <g
       id="g4295">
      <g
         id="g657"
         transform="matrix(0.35277777,0,0,-0.35277777,-1.5189955,2.8292436)">
        <path
           d="m 0,0 h -104.253 c -3.525,0 -6.383,-2.857 -6.383,-6.382 v -104.254 c 0,-3.525 2.858,-6.383 6.383,-6.383 H 0 c 3.525,0 6.383,2.858 6.383,6.383 V -6.382 C 6.383,-2.857 3.525,0 0,0"
           style="fill:#c4a766;fill-opacity:1;fill-rule:nonzero;stroke:none"
           id="path659" />
      </g>
      <g
         id="g815"
         transform="matrix(0.35277777,0,0,-0.35277777,0.73271353,39.057863)">
        <path
           d="m 0,0 c 0,-3.525 -2.857,-6.383 -6.383,-6.383 h -104.253 c -3.525,0 -6.383,2.858 -6.383,6.383 v 104.254 c 0,3.524 2.858,6.382 6.383,6.382 H -6.383 c 3.526,0 6.383,-2.858 6.383,-6.382 z"
           style="fill:#efdba3;fill-opacity:1;fill-rule:nonzero;stroke:none"
           id="path817" />
      </g>
      <g
         id="g819"
         transform="matrix(0.35277777,0,0,-0.35277777,-25.842917,25.22273)">
        <path
           d="m 0,0 8.728,1.862 c 1.046,-4.942 5.063,-7.413 12.05,-7.413 3.189,0 5.642,0.633 7.359,1.9 1.716,1.264 2.574,2.836 2.574,4.711 0,1.363 -0.39,2.622 -1.169,3.779 -0.779,1.155 -2.446,2.063 -5.002,2.721 l -9.532,2.482 c -3.262,0.852 -5.672,1.819 -7.23,2.903 -1.558,1.083 -2.806,2.612 -3.743,4.583 -0.937,1.973 -1.406,4.077 -1.406,6.318 0,4.455 1.655,8.027 4.967,10.717 3.31,2.69 7.546,4.036 12.708,4.036 4.284,0 8.112,-0.939 11.485,-2.812 3.371,-1.875 5.519,-4.528 6.444,-7.961 l -8.545,-2.118 c -1.314,3.772 -4.382,5.66 -9.202,5.66 -2.8,0 -4.936,-0.584 -6.408,-1.753 -1.474,-1.169 -2.21,-2.654 -2.21,-4.455 0,-2.848 2.313,-4.845 6.939,-5.988 l 8.471,-2.118 c 5.137,-1.291 8.582,-3.196 10.335,-5.715 1.752,-2.521 2.629,-5.302 2.629,-8.344 0,-4.893 -1.844,-8.746 -5.533,-11.558 -3.688,-2.812 -8.466,-4.218 -14.333,-4.218 -4.942,0 -9.269,1.034 -12.981,3.104 C 3.682,-7.607 1.217,-4.382 0,0"
           style="fill:#634b28;fill-opacity:1;fill-rule:nonzero;stroke:none"
           id="path821" />
      </g>
      <g
         id="g823"
         transform="matrix(0.35277777,0,0,-0.35277777,-6.0503205,35.983828)">
        <path
           d="M 0,0 H -1.437 V 10.858 C -1.548,10.747 -1.71,10.621 -1.923,10.478 -2.137,10.335 -2.376,10.193 -2.642,10.053 -2.908,9.912 -3.188,9.78 -3.483,9.658 -3.779,9.535 -4.066,9.439 -4.347,9.369 v 1.454 c 0.316,0.088 0.65,0.206 1.004,0.355 0.353,0.15 0.701,0.316 1.043,0.501 0.342,0.182 0.664,0.377 0.968,0.577 0.304,0.202 0.567,0.399 0.789,0.592 H 0 Z"
           style="fill:#634b28;fill-opacity:1;fill-rule:nonzero;stroke:none"
           id="path825" />
      </g>
    </g>
  </g>
</svg>
