<?xml version="1.0" encoding="UTF-8" standalone="no"?>
<svg
   xmlns:dc="http://purl.org/dc/elements/1.1/"
   xmlns:cc="http://creativecommons.org/ns#"
   xmlns:rdf="http://www.w3.org/1999/02/22-rdf-syntax-ns#"
   xmlns:svg="http://www.w3.org/2000/svg"
   xmlns="http://www.w3.org/2000/svg"
   width="41.281418mm"
   height="44.083004mm"
   viewBox="0 0 41.281418 44.083004"
   version="1.1"
   id="svg2869">
  <defs
     id="defs2863" />
  <metadata
     id="metadata2866">
    <rdf:RDF>
      <cc:Work
         rdf:about="">
        <dc:format>image/svg+xml</dc:format>
        <dc:type
           rdf:resource="http://purl.org/dc/dcmitype/StillImage" />
        <dc:title></dc:title>
      </cc:Work>
    </rdf:RDF>
  </metadata>
  <g
     id="layer1"
     transform="translate(-0.73843891,-14.163565)">
    <g
       id="g3915"
       transform="translate(-7.772576,-13.719899)">
      <g
         id="g661"
         transform="matrix(0.35277777,0,0,-0.35277777,47.540654,30.684766)">
        <path
           d="m 0,0 h -104.252 c -3.525,0 -6.383,-2.857 -6.383,-6.382 v -104.254 c 0,-3.525 2.858,-6.383 6.383,-6.383 H 0 c 3.525,0 6.383,2.858 6.383,6.383 V -6.382 C 6.383,-2.857 3.525,0 0,0"
           style="fill:#c4a766;fill-opacity:1;fill-rule:nonzero;stroke:none"
           id="path663" />
      </g>
      <g
         id="g827"
         transform="matrix(0.35277777,0,0,-0.35277777,49.792364,66.913385)">
        <path
           d="m 0,0 c 0,-3.525 -2.857,-6.383 -6.383,-6.383 h -104.252 c -3.525,0 -6.383,2.858 -6.383,6.383 v 104.254 c 0,3.524 2.858,6.382 6.383,6.382 H -6.383 c 3.526,0 6.383,-2.858 6.383,-6.382 z"
           style="fill:#efdba3;fill-opacity:1;fill-rule:nonzero;stroke:none"
           id="path829" />
      </g>
      <g
         id="g831"
         transform="matrix(0.35277777,0,0,-0.35277777,30.852255,57.316383)">
        <path
           d="m 0,0 h -9.641 v 42.141 h -13.255 v 7.705 H 13.256 V 42.141 H 0 Z"
           style="fill:#634b28;fill-opacity:1;fill-rule:nonzero;stroke:none"
           id="path833" />
      </g>
      <g
         id="g835"
         transform="matrix(0.35277777,0,0,-0.35277777,43.07029,63.83935)">
        <path
           d="M 0,0 H -1.437 V 10.858 C -1.548,10.747 -1.71,10.621 -1.923,10.478 -2.137,10.335 -2.377,10.193 -2.643,10.053 -2.908,9.912 -3.188,9.78 -3.484,9.658 -3.778,9.535 -4.066,9.439 -4.347,9.369 v 1.454 c 0.316,0.088 0.65,0.206 1.003,0.355 0.354,0.15 0.701,0.316 1.044,0.501 0.341,0.182 0.664,0.377 0.968,0.577 0.304,0.202 0.567,0.399 0.789,0.592 H 0 Z"
           style="fill:#634b28;fill-opacity:1;fill-rule:nonzero;stroke:none"
           id="path837" />
      </g>
    </g>
  </g>
</svg>
