<?xml version="1.0" encoding="UTF-8" standalone="no"?>
<svg
   xmlns:dc="http://purl.org/dc/elements/1.1/"
   xmlns:cc="http://creativecommons.org/ns#"
   xmlns:rdf="http://www.w3.org/1999/02/22-rdf-syntax-ns#"
   xmlns:svg="http://www.w3.org/2000/svg"
   xmlns="http://www.w3.org/2000/svg"
   width="41.281773mm"
   height="44.082829mm"
   viewBox="0 0 41.281773 44.082829"
   version="1.1"
   id="svg2869">
  <defs
     id="defs2863" />
  <metadata
     id="metadata2866">
    <rdf:RDF>
      <cc:Work
         rdf:about="">
        <dc:format>image/svg+xml</dc:format>
        <dc:type
           rdf:resource="http://purl.org/dc/dcmitype/StillImage" />
        <dc:title></dc:title>
      </cc:Work>
    </rdf:RDF>
  </metadata>
  <g
     id="layer1"
     transform="translate(2.2616379,12.326308)">
    <g
       id="g6623"
       transform="translate(-87.397136,-30.468726)">
      <g
         id="g673"
         transform="matrix(0.35277777,0,0,-0.35277777,124.16549,20.943543)">
        <path
           d="m 0,0 h -104.253 c -3.525,0 -6.383,-2.858 -6.383,-6.383 v -104.253 c 0,-3.525 2.858,-6.383 6.383,-6.383 H 0 c 3.525,0 6.383,2.858 6.383,6.383 V -6.383 C 6.383,-2.858 3.525,0 0,0"
           style="fill:#c4a766;fill-opacity:1;fill-rule:nonzero;stroke:none"
           id="path675" />
      </g>
      <g
         id="g863"
         transform="matrix(0.35277777,0,0,-0.35277777,126.4172,57.172339)">
        <path
           d="m 0,0 c 0,-3.525 -2.857,-6.383 -6.383,-6.383 h -104.253 c -3.525,0 -6.383,2.858 -6.383,6.383 v 104.253 c 0,3.526 2.858,6.383 6.383,6.383 H -6.383 c 3.526,0 6.383,-2.857 6.383,-6.383 z"
           style="fill:#efdba3;fill-opacity:1;fill-rule:nonzero;stroke:none"
           id="path865" />
      </g>
      <g
         id="g867"
         transform="matrix(0.35277777,0,0,-0.35277777,112.99527,38.392461)">
        <path
           d="m 0,0 v -25.488 h -3.98 l -2.739,6.718 c -2.897,-4.991 -7.388,-7.485 -13.475,-7.485 -6.792,0 -11.862,2.58 -15.209,7.741 -3.347,5.16 -5.021,11.138 -5.021,17.93 0,7.182 1.868,13.262 5.605,18.241 3.737,4.977 8.965,7.468 15.685,7.468 5.014,0 9.141,-1.456 12.379,-4.365 3.237,-2.91 5.282,-6.531 6.134,-10.864 L -8.435,8.509 c -1.461,6.086 -4.954,9.129 -10.48,9.129 -3.53,0 -6.409,-1.436 -8.637,-4.309 -2.227,-2.873 -3.342,-7.292 -3.342,-13.256 0,-12.586 3.944,-18.879 11.832,-18.879 3.068,0 5.606,1.059 7.615,3.178 2.008,2.117 3.012,4.916 3.012,8.399 H -18.733 V 0 Z"
           style="fill:#634b28;fill-opacity:1;fill-rule:nonzero;stroke:none"
           id="path869" />
      </g>
      <g
         id="g871"
         transform="matrix(0.35277777,0,0,-0.35277777,120.31594,50.81479)">
        <path
           d="M 0,0 C 0,0.386 -0.06,0.722 -0.18,1.008 -0.299,1.295 -0.463,1.532 -0.67,1.723 -0.877,1.912 -1.122,2.054 -1.402,2.147 -1.683,2.241 -1.986,2.288 -2.313,2.288 -2.594,2.288 -2.869,2.25 -3.137,2.174 -3.406,2.098 -3.667,1.993 -3.922,1.858 -4.176,1.724 -4.421,1.563 -4.658,1.376 -4.895,1.189 -5.115,0.982 -5.319,0.754 v 1.542 c 0.402,0.392 0.854,0.691 1.354,0.899 0.499,0.207 1.108,0.311 1.827,0.311 0.514,0 0.99,-0.075 1.428,-0.223 C -0.271,3.134 0.108,2.916 0.43,2.629 0.751,2.343 1.003,1.99 1.188,1.569 1.372,1.148 1.463,0.667 1.463,0.124 1.463,-0.374 1.407,-0.823 1.293,-1.227 1.179,-1.63 1.007,-2.01 0.776,-2.366 0.545,-2.722 0.254,-3.064 -0.096,-3.392 c -0.351,-0.327 -0.763,-0.66 -1.236,-0.999 -0.59,-0.42 -1.076,-0.779 -1.46,-1.078 -0.382,-0.297 -0.686,-0.576 -0.911,-0.836 -0.224,-0.26 -0.382,-0.521 -0.473,-0.78 -0.091,-0.261 -0.136,-0.56 -0.136,-0.898 H 1.946 V -9.272 H -5.81 v 0.623 c 0,0.536 0.058,1.01 0.175,1.419 0.117,0.409 0.309,0.797 0.578,1.165 0.269,0.369 0.621,0.737 1.057,1.105 0.435,0.368 0.968,0.783 1.599,1.245 0.456,0.326 0.837,0.639 1.144,0.937 0.306,0.299 0.553,0.596 0.74,0.894 0.187,0.298 0.32,0.6 0.399,0.907 C -0.039,-0.67 0,-0.344 0,0"
           style="fill:#634b28;fill-opacity:1;fill-rule:nonzero;stroke:none"
           id="path873" />
      </g>
    </g>
  </g>
</svg>
