<?xml version="1.0" encoding="UTF-8" standalone="no"?>
<svg
   xmlns:dc="http://purl.org/dc/elements/1.1/"
   xmlns:cc="http://creativecommons.org/ns#"
   xmlns:rdf="http://www.w3.org/1999/02/22-rdf-syntax-ns#"
   xmlns:svg="http://www.w3.org/2000/svg"
   xmlns="http://www.w3.org/2000/svg"
   width="41.281773mm"
   height="44.083004mm"
   viewBox="0 0 41.281773 44.083004"
   version="1.1"
   id="svg2869">
  <defs
     id="defs2863" />
  <metadata
     id="metadata2866">
    <rdf:RDF>
      <cc:Work
         rdf:about="">
        <dc:format>image/svg+xml</dc:format>
        <dc:type
           rdf:resource="http://purl.org/dc/dcmitype/StillImage" />
        <dc:title></dc:title>
      </cc:Work>
    </rdf:RDF>
  </metadata>
  <g
     id="layer1"
     transform="translate(40.699756,-0.05760164)">
    <g
       id="g4417"
       transform="translate(-71.360964,-37.417734)">
      <g
         id="g653"
         transform="matrix(0.35277777,0,0,-0.35277777,69.6912,40.276638)">
        <path
           d="m 0,0 h -104.253 c -3.525,0 -6.383,-2.857 -6.383,-6.382 v -104.254 c 0,-3.525 2.858,-6.383 6.383,-6.383 H 0 c 3.525,0 6.383,2.858 6.383,6.383 V -6.382 C 6.383,-2.857 3.525,0 0,0"
           style="fill:#c4a766;fill-opacity:1;fill-rule:nonzero;stroke:none"
           id="path655" />
      </g>
      <g
         id="g803"
         transform="matrix(0.35277777,0,0,-0.35277777,71.94291,76.505257)">
        <path
           d="m 0,0 c 0,-3.525 -2.858,-6.383 -6.383,-6.383 h -104.253 c -3.525,0 -6.383,2.858 -6.383,6.383 v 104.254 c 0,3.524 2.858,6.382 6.383,6.382 H -6.383 c 3.525,0 6.383,-2.858 6.383,-6.382 z"
           style="fill:#efdba3;fill-opacity:1;fill-rule:nonzero;stroke:none"
           id="path805" />
      </g>
      <g
         id="g807"
         transform="matrix(0.35277777,0,0,-0.35277777,46.844888,57.143472)">
        <path
           d="m 0,0 h 11.174 c 3.238,0 5.648,0.682 7.23,2.045 1.583,1.362 2.374,3.237 2.374,5.623 0,2.191 -0.779,3.963 -2.337,5.313 -1.558,1.352 -3.737,2.028 -6.536,2.028 H 0 Z M 29.871,-27.68 H 20.376 L 12.635,-7.194 H 0 V -27.68 h -8.983 v 49.846 h 21.618 c 6.012,0 10.431,-1.358 13.256,-4.071 2.823,-2.715 4.235,-6.227 4.235,-10.535 0,-6.404 -2.994,-10.81 -8.983,-13.22 z"
           style="fill:#634b28;fill-opacity:1;fill-rule:nonzero;stroke:none"
           id="path809" />
      </g>
      <g
         id="g811"
         transform="matrix(0.35277777,0,0,-0.35277777,65.120435,73.431222)">
        <path
           d="M 0,0 H -1.437 V 10.858 C -1.548,10.747 -1.71,10.621 -1.923,10.478 -2.137,10.335 -2.376,10.193 -2.642,10.053 -2.908,9.912 -3.189,9.78 -3.484,9.658 -3.779,9.535 -4.066,9.439 -4.347,9.369 v 1.454 c 0.316,0.088 0.65,0.206 1.003,0.355 0.354,0.15 0.702,0.316 1.044,0.501 0.342,0.182 0.664,0.377 0.968,0.577 0.304,0.202 0.566,0.399 0.789,0.592 H 0 Z"
           style="fill:#634b28;fill-opacity:1;fill-rule:nonzero;stroke:none"
           id="path813" />
      </g>
    </g>
  </g>
</svg>
