<?xml version="1.0" encoding="UTF-8" standalone="no"?>
<svg
   xmlns:dc="http://purl.org/dc/elements/1.1/"
   xmlns:cc="http://creativecommons.org/ns#"
   xmlns:rdf="http://www.w3.org/1999/02/22-rdf-syntax-ns#"
   xmlns:svg="http://www.w3.org/2000/svg"
   xmlns="http://www.w3.org/2000/svg"
   width="41.281773mm"
   height="44.080822mm"
   viewBox="0 0 41.281773 44.080822"
   version="1.1"
   id="svg2869">
  <defs
     id="defs2863" />
  <metadata
     id="metadata2866">
    <rdf:RDF>
      <cc:Work
         rdf:about="">
        <dc:format>image/svg+xml</dc:format>
        <dc:type
           rdf:resource="http://purl.org/dc/dcmitype/StillImage" />
        <dc:title></dc:title>
      </cc:Work>
    </rdf:RDF>
  </metadata>
  <g
     id="layer1"
     transform="translate(-8.5400541,-42.612577)">
    <g
       id="g5637"
       transform="translate(-54.255714,-46.504898)">
      <g
         id="g713"
         transform="matrix(0.35277777,0,0,-0.35277777,101.82576,91.918711)">
        <path
           d="m 0,0 h -104.253 c -3.525,0 -6.383,-2.858 -6.383,-6.383 V -110.63 c 0,-3.525 2.858,-6.383 6.383,-6.383 H 0 c 3.525,0 6.383,2.858 6.383,6.383 V -6.383 C 6.383,-2.858 3.525,0 0,0"
           style="fill:#c4a766;fill-opacity:1;fill-rule:nonzero;stroke:none"
           id="path715" />
      </g>
      <g
         id="g983"
         transform="matrix(0.35277777,0,0,-0.35277777,104.07747,128.14528)">
        <path
           d="m 0,0 c 0,-3.525 -2.858,-6.384 -6.383,-6.384 h -104.253 c -3.525,0 -6.383,2.859 -6.383,6.384 v 104.247 c 0,3.525 2.858,6.383 6.383,6.383 H -6.383 c 3.525,0 6.383,-2.858 6.383,-6.383 z"
           style="fill:#efdba3;fill-opacity:1;fill-rule:nonzero;stroke:none"
           id="path985" />
      </g>
      <g
         id="g987"
         transform="matrix(0.35277777,0,0,-0.35277777,90.689481,118.70949)">
        <path
           d="M 0,0 H -10.042 L -20.559,25.379 -30.2,12.598 V 0 h -8.983 V 49.846 H -30.2 V 23.663 c 1.144,1.777 1.972,3.006 2.484,3.689 l 16.542,22.494 h 9.092 L -13.913,33.45 Z"
           style="fill:#634b28;fill-opacity:1;fill-rule:nonzero;stroke:none"
           id="path989" />
      </g>
      <g
         id="g991"
         transform="matrix(0.35277777,0,0,-0.35277777,99.068306,123.01278)">
        <path
           d="m 0,0 c 0,-0.613 -0.105,-1.169 -0.315,-1.666 -0.21,-0.496 -0.51,-0.923 -0.899,-1.279 -0.388,-0.356 -0.857,-0.631 -1.406,-0.824 -0.549,-0.193 -1.16,-0.289 -1.832,-0.289 -1.169,0 -2.036,0.175 -2.603,0.526 v 1.525 c 0.853,-0.55 1.727,-0.824 2.621,-0.824 0.455,0 0.866,0.066 1.231,0.201 0.365,0.135 0.677,0.321 0.933,0.562 0.257,0.239 0.455,0.527 0.592,0.867 0.137,0.339 0.206,0.71 0.206,1.113 0,0.817 -0.275,1.459 -0.824,1.924 -0.549,0.464 -1.347,0.696 -2.392,0.696 -0.17,0 -0.348,-0.003 -0.535,-0.009 C -5.41,2.518 -5.597,2.51 -5.784,2.502 -5.971,2.493 -6.153,2.482 -6.332,2.472 -6.51,2.459 -6.672,2.445 -6.818,2.428 l 0.429,6.301 h 5.811 V 7.431 H -5.144 L -5.398,3.742 c 0.187,0.011 0.385,0.022 0.596,0.03 0.21,0.009 0.397,0.014 0.56,0.014 0.667,0 1.262,-0.088 1.788,-0.264 C -1.928,3.348 -1.482,3.098 -1.117,2.773 -0.752,2.449 -0.475,2.052 -0.285,1.581 -0.095,1.111 0,0.584 0,0"
           style="fill:#634b28;fill-opacity:1;fill-rule:nonzero;stroke:none"
           id="path993" />
      </g>
    </g>
  </g>
</svg>
