<?xml version="1.0" encoding="UTF-8" standalone="no"?>
<svg
   xmlns:dc="http://purl.org/dc/elements/1.1/"
   xmlns:cc="http://creativecommons.org/ns#"
   xmlns:rdf="http://www.w3.org/1999/02/22-rdf-syntax-ns#"
   xmlns:svg="http://www.w3.org/2000/svg"
   xmlns="http://www.w3.org/2000/svg"
   width="41.281773mm"
   height="44.080814mm"
   viewBox="0 0 41.281773 44.080814"
   version="1.1"
   id="svg2869">
  <defs
     id="defs2863" />
  <metadata
     id="metadata2866">
    <rdf:RDF>
      <cc:Work
         rdf:about="">
        <dc:format>image/svg+xml</dc:format>
        <dc:type
           rdf:resource="http://purl.org/dc/dcmitype/StillImage" />
        <dc:title></dc:title>
      </cc:Work>
    </rdf:RDF>
  </metadata>
  <g
     id="layer1"
     transform="translate(-10.945291,-37.14418)">
    <g
       id="g5111">
      <g
         id="g641"
         transform="matrix(0.35277777,0,0,-0.35277777,49.975283,39.94541)">
        <path
           d="m 0,0 h -104.253 c -3.525,0 -6.383,-2.858 -6.383,-6.383 V -110.63 c 0,-3.525 2.858,-6.383 6.383,-6.383 H 0 c 3.525,0 6.383,2.858 6.383,6.383 V -6.383 C 6.383,-2.858 3.525,0 0,0"
           style="fill:#c4a766;fill-opacity:1;fill-rule:nonzero;stroke:none"
           id="path643" />
      </g>
      <g
         id="g767"
         transform="matrix(0.35277777,0,0,-0.35277777,52.226993,76.171985)">
        <path
           d="m 0,0 c 0,-3.525 -2.857,-6.384 -6.383,-6.384 h -104.253 c -3.525,0 -6.383,2.859 -6.383,6.384 v 104.247 c 0,3.525 2.858,6.383 6.383,6.383 H -6.383 c 3.526,0 6.383,-2.858 6.383,-6.383 z"
           style="fill:#efdba3;fill-opacity:1;fill-rule:nonzero;stroke:none"
           id="path769" />
      </g>
      <g
         id="g771"
         transform="matrix(0.35277777,0,0,-0.35277777,31.718323,65.398467)">
        <path
           d="m 0,0 c 3.238,0 5.977,1.338 8.216,4.017 2.24,2.677 3.36,7.534 3.36,14.57 0,5.72 -0.925,10.206 -2.775,13.456 -1.85,3.25 -4.723,4.875 -8.618,4.875 -7.693,0 -11.539,-6.196 -11.539,-18.587 0,-6.014 0.979,-10.572 2.939,-13.676 C -6.458,1.551 -3.652,0 0,0 m -0.073,-7.23 c -6.622,0 -11.777,2.482 -15.465,7.449 -3.689,4.966 -5.532,11.1 -5.532,18.404 0,7.254 1.959,13.322 5.88,18.204 3.919,4.881 9.092,7.321 15.518,7.321 6.476,0 11.596,-2.44 15.356,-7.321 3.761,-4.882 5.642,-10.985 5.642,-18.314 0,-7.693 -1.953,-13.907 -5.861,-18.642 C 11.558,-4.864 6.378,-7.23 -0.073,-7.23"
           style="fill:#634b28;fill-opacity:1;fill-rule:nonzero;stroke:none"
           id="path773" />
      </g>
      <g
         id="g775"
         transform="matrix(0.35277777,0,0,-0.35277777,44.476893,72.481925)">
        <path
           d="M 0,0 H -1.437 V 10.858 C -1.549,10.748 -1.711,10.62 -1.924,10.478 -2.137,10.334 -2.377,10.192 -2.642,10.053 -2.908,9.912 -3.189,9.78 -3.483,9.657 -3.779,9.535 -4.066,9.438 -4.348,9.369 v 1.455 c 0.317,0.087 0.651,0.205 1.004,0.355 0.354,0.148 0.702,0.315 1.043,0.499 0.342,0.184 0.664,0.377 0.969,0.579 0.304,0.201 0.566,0.397 0.789,0.592 H 0 Z"
           style="fill:#634b28;fill-opacity:1;fill-rule:nonzero;stroke:none"
           id="path777" />
      </g>
    </g>
  </g>
</svg>
