<?xml version="1.0" encoding="UTF-8" standalone="no"?>
<svg
   xmlns:dc="http://purl.org/dc/elements/1.1/"
   xmlns:cc="http://creativecommons.org/ns#"
   xmlns:rdf="http://www.w3.org/1999/02/22-rdf-syntax-ns#"
   xmlns:svg="http://www.w3.org/2000/svg"
   xmlns="http://www.w3.org/2000/svg"
   width="41.281418mm"
   height="44.082653mm"
   viewBox="0 0 41.281418 44.082653"
   version="1.1"
   id="svg2869">
  <defs
     id="defs2863" />
  <metadata
     id="metadata2866">
    <rdf:RDF>
      <cc:Work
         rdf:about="">
        <dc:format>image/svg+xml</dc:format>
        <dc:type
           rdf:resource="http://purl.org/dc/dcmitype/StillImage" />
        <dc:title></dc:title>
      </cc:Work>
    </rdf:RDF>
  </metadata>
  <g
     id="layer1"
     transform="translate(-41.831975,-4.6667932)">
    <g
       id="g3191"
       transform="translate(-47.058036,-0.37797619)">
      <g
         id="g709"
         transform="matrix(0.35277777,0,0,-0.35277777,127.91965,7.8457193)">
        <path
           d="m 0,0 h -104.252 c -3.525,0 -6.383,-2.858 -6.383,-6.384 v -104.252 c 0,-3.525 2.858,-6.383 6.383,-6.383 H 0 c 3.525,0 6.383,2.858 6.383,6.383 V -6.384 C 6.383,-2.858 3.525,0 0,0"
           style="fill:#c4a766;fill-opacity:1;fill-rule:nonzero;stroke:none"
           id="path711" />
      </g>
      <g
         id="g971"
         transform="matrix(0.35277777,0,0,-0.35277777,130.17136,44.074338)">
        <path
           d="m 0,0 c 0,-3.525 -2.857,-6.383 -6.383,-6.383 h -104.252 c -3.525,0 -6.383,2.858 -6.383,6.383 v 104.252 c 0,3.525 2.858,6.383 6.383,6.383 H -6.383 c 3.526,0 6.383,-2.858 6.383,-6.383 z"
           style="fill:#efdba3;fill-opacity:1;fill-rule:nonzero;stroke:none"
           id="path973" />
      </g>
      <g
         id="g975"
         transform="matrix(0.35277777,0,0,-0.35277777,111.31567,34.477337)">
        <path
           d="m 0,0 h -9.53 v 21.032 l -16.981,28.813 h 10.882 L -3.798,29.286 7.523,49.845 h 8.618 L 0,21.032 Z"
           style="fill:#634b28;fill-opacity:1;fill-rule:nonzero;stroke:none"
           id="path977" />
      </g>
      <g
         id="g979"
         transform="matrix(0.35277777,0,0,-0.35277777,122.44437,39.749036)">
        <path
           d="M 0,0 H 4.286 V 6.151 C 3.849,5.387 3.433,4.703 3.042,4.102 2.65,3.5 2.277,2.954 1.924,2.463 1.57,1.972 1.233,1.527 0.912,1.13 0.59,0.732 0.287,0.356 0,0 M 5.706,8.3 V 0 H 7.318 V -1.315 H 5.706 v -2.954 h -1.42 v 2.954 H -1.62 v 1.245 c 0.549,0.62 1.103,1.281 1.664,1.985 0.561,0.703 1.098,1.418 1.609,2.143 0.51,0.724 0.984,1.447 1.419,2.17 0.436,0.72 0.802,1.412 1.101,2.072 z"
           style="fill:#634b28;fill-opacity:1;fill-rule:nonzero;stroke:none"
           id="path981" />
      </g>
    </g>
  </g>
</svg>
