<?xml version="1.0" encoding="UTF-8" standalone="no"?>
<svg
   xmlns:dc="http://purl.org/dc/elements/1.1/"
   xmlns:cc="http://creativecommons.org/ns#"
   xmlns:rdf="http://www.w3.org/1999/02/22-rdf-syntax-ns#"
   xmlns:svg="http://www.w3.org/2000/svg"
   xmlns="http://www.w3.org/2000/svg"
   width="41.281418mm"
   height="44.082829mm"
   viewBox="0 0 41.281418 44.082829"
   version="1.1"
   id="svg2869">
  <defs
     id="defs2863" />
  <metadata
     id="metadata2866">
    <rdf:RDF>
      <cc:Work
         rdf:about="">
        <dc:format>image/svg+xml</dc:format>
        <dc:type
           rdf:resource="http://purl.org/dc/dcmitype/StillImage" />
        <dc:title></dc:title>
      </cc:Work>
    </rdf:RDF>
  </metadata>
  <g
     id="layer1"
     transform="translate(1.7996231,12.623238)">
    <g
       id="g6469">
      <g
         id="g697"
         transform="matrix(0.35277777,0,0,-0.35277777,37.230016,-9.8221133)">
        <path
           d="m 0,0 h -104.252 c -3.525,0 -6.383,-2.858 -6.383,-6.383 v -104.253 c 0,-3.525 2.858,-6.383 6.383,-6.383 H 0 c 3.525,0 6.383,2.858 6.383,6.383 V -6.383 C 6.383,-2.858 3.525,0 0,0"
           style="fill:#c4a766;fill-opacity:1;fill-rule:nonzero;stroke:none"
           id="path699" />
      </g>
      <g
         id="g935"
         transform="matrix(0.35277777,0,0,-0.35277777,39.481726,26.406683)">
        <path
           d="m 0,0 c 0,-3.525 -2.857,-6.383 -6.383,-6.383 h -104.252 c -3.525,0 -6.383,2.858 -6.383,6.383 v 104.253 c 0,3.526 2.858,6.383 6.383,6.383 H -6.383 c 3.526,0 6.383,-2.857 6.383,-6.383 z"
           style="fill:#efdba3;fill-opacity:1;fill-rule:nonzero;stroke:none"
           id="path937" />
      </g>
      <g
         id="g939"
         transform="matrix(0.35277777,0,0,-0.35277777,25.321683,16.618476)">
        <path
           d="M 0,0 H -8.983 V 21.654 H -28.009 V 0 h -8.983 v 49.846 h 8.983 V 29.359 H -8.983 V 49.846 H 0 Z"
           style="fill:#634b28;fill-opacity:1;fill-rule:nonzero;stroke:none"
           id="path941" />
      </g>
      <g
         id="g943"
         transform="matrix(0.35277777,0,0,-0.35277777,31.754727,21.77718)">
        <path
           d="M 0,0 H 4.286 V 6.152 C 3.849,5.386 3.433,4.703 3.042,4.101 2.65,3.5 2.277,2.954 1.924,2.462 1.57,1.972 1.233,1.527 0.912,1.13 0.59,0.732 0.287,0.355 0,0 M 5.706,8.299 V 0 H 7.318 V -1.315 H 5.706 v -2.954 h -1.42 v 2.954 H -1.62 v 1.245 c 0.549,0.619 1.103,1.28 1.664,1.985 0.561,0.704 1.098,1.418 1.609,2.142 0.51,0.725 0.984,1.448 1.419,2.17 0.436,0.721 0.802,1.412 1.101,2.072 z"
           style="fill:#634b28;fill-opacity:1;fill-rule:nonzero;stroke:none"
           id="path945" />
      </g>
    </g>
  </g>
</svg>
