<?xml version="1.0" encoding="UTF-8" standalone="no"?>
<svg
   xmlns:dc="http://purl.org/dc/elements/1.1/"
   xmlns:cc="http://creativecommons.org/ns#"
   xmlns:rdf="http://www.w3.org/1999/02/22-rdf-syntax-ns#"
   xmlns:svg="http://www.w3.org/2000/svg"
   xmlns="http://www.w3.org/2000/svg"
   width="41.282158mm"
   height="44.082821mm"
   viewBox="0 0 41.282158 44.082821"
   version="1.1"
   id="svg2869">
  <defs
     id="defs2863" />
  <metadata
     id="metadata2866">
    <rdf:RDF>
      <cc:Work
         rdf:about="">
        <dc:format>image/svg+xml</dc:format>
        <dc:type
           rdf:resource="http://purl.org/dc/dcmitype/StillImage" />
        <dc:title></dc:title>
      </cc:Work>
    </rdf:RDF>
  </metadata>
  <g
     id="layer1"
     transform="translate(19.543333,-9.7085606)">
    <g
       id="g7199">
      <g
         id="g681"
         transform="matrix(0.35277777,0,0,-0.35277777,-17.291449,53.791382)">
        <path
           d="m 0,0 h 104.254 c 3.525,0 6.383,2.857 6.383,6.383 v 104.253 c 0,3.525 -2.858,6.383 -6.383,6.383 L 0,117.019 c -3.524,0 -6.383,-2.858 -6.383,-6.383 V 6.383 C -6.383,2.857 -3.524,0 0,0"
           style="fill:#c4a766;fill-opacity:1;fill-rule:nonzero;stroke:none"
           id="path683" />
      </g>
      <g
         id="g887"
         transform="matrix(0.35277777,0,0,-0.35277777,21.738722,48.738482)">
        <path
           d="m 0,0 c 0,-3.525 -2.857,-6.383 -6.383,-6.383 h -104.254 c -3.524,0 -6.383,2.858 -6.383,6.383 v 104.253 c 0,3.525 2.859,6.383 6.383,6.383 H -6.383 c 3.526,0 6.383,-2.858 6.383,-6.383 z"
           style="fill:#efdba3;fill-opacity:1;fill-rule:nonzero;stroke:none"
           id="path889" />
      </g>
      <g
         id="g891"
         transform="matrix(0.35277777,0,0,-0.35277777,4.3313232,31.7626)">
        <path
           d="M 0,0 8.326,-0.914 C 7.79,-5.905 5.861,-10.013 2.538,-13.238 c -3.323,-3.226 -7.686,-4.838 -13.092,-4.838 -4.552,0 -8.247,1.144 -11.082,3.432 -2.837,2.288 -5.021,5.393 -6.555,9.312 -1.535,3.919 -2.3,8.241 -2.3,12.964 0,7.595 1.801,13.772 5.404,18.532 3.603,4.76 8.558,7.14 14.862,7.14 4.942,0 9.057,-1.523 12.343,-4.566 3.287,-3.043 5.357,-7.401 6.208,-13.073 L 0,14.789 c -1.534,7.523 -4.918,11.284 -10.152,11.284 -3.359,0 -5.97,-1.565 -7.832,-4.693 -1.863,-3.128 -2.794,-7.663 -2.794,-13.603 0,-6.037 0.999,-10.596 2.994,-13.674 1.996,-3.081 4.638,-4.62 7.925,-4.62 2.629,0 4.868,1.034 6.718,3.103 1.85,2.069 2.898,4.54 3.141,7.414"
           style="fill:#634b28;fill-opacity:1;fill-rule:nonzero;stroke:none"
           id="path893" />
      </g>
      <g
         id="g895"
         transform="matrix(0.35277777,0,0,-0.35277777,15.576822,44.235552)">
        <path
           d="m 0,0 c 0,-0.567 -0.105,-1.083 -0.319,-1.547 -0.213,-0.465 -0.514,-0.862 -0.903,-1.192 -0.388,-0.33 -0.854,-0.585 -1.398,-0.766 -0.543,-0.182 -1.142,-0.272 -1.796,-0.272 -1.198,0 -2.15,0.228 -2.857,0.683 v 1.543 c 0.847,-0.667 1.817,-1 2.91,-1 0.438,0 0.834,0.056 1.187,0.167 0.354,0.111 0.656,0.272 0.911,0.482 0.254,0.21 0.45,0.465 0.587,0.762 0.138,0.299 0.206,0.635 0.206,1.009 0,1.641 -1.169,2.462 -3.506,2.462 H -6.02 V 3.55 h 0.991 c 2.068,0 3.102,0.771 3.102,2.313 0,1.426 -0.789,2.139 -2.367,2.139 -0.888,0 -1.721,-0.299 -2.497,-0.895 v 1.394 c 0.8,0.479 1.752,0.718 2.856,0.718 0.527,0 1.002,-0.072 1.429,-0.219 0.427,-0.146 0.792,-0.35 1.096,-0.613 0.304,-0.263 0.539,-0.579 0.705,-0.947 0.167,-0.367 0.25,-0.774 0.25,-1.218 0,-1.654 -0.835,-2.716 -2.506,-3.19 V 2.998 C -2.535,2.951 -2.14,2.847 -1.778,2.686 -1.416,2.526 -1.103,2.317 -0.84,2.059 -0.577,1.802 -0.371,1.5 -0.223,1.152 -0.074,0.805 0,0.421 0,0"
           style="fill:#634b28;fill-opacity:1;fill-rule:nonzero;stroke:none"
           id="path897" />
      </g>
    </g>
  </g>
</svg>
